<?xml version="1.0" standalone="no"?>
<!DOCTYPE svg PUBLIC "-//W3C//DTD SVG 20010904//EN"
 "http://www.w3.org/TR/2001/REC-SVG-20010904/DTD/svg10.dtd">
<svg version="1.0" xmlns="http://www.w3.org/2000/svg"
 width="1207.000000pt" height="478.000000pt" viewBox="0 0 1207.000000 478.000000"
 preserveAspectRatio="xMidYMid meet">

<g transform="translate(0.000000,478.000000) scale(0.100000,-0.100000)"
fill="#000000" stroke="none">
<path d="M2744 4709 c-18 -20 -19 -51 -22 -825 l-2 -804 29 -57 30 -58 1 883
c0 485 -4 882 -8 882 -5 0 -17 -9 -28 -21z"/>
<path d="M2590 4615 c-16 -19 -5 -32 38 -44 26 -8 32 -7 32 5 0 46 -44 70 -70
39z"/>
<path d="M1568 3790 c18 -11 35 -20 38 -20 3 0 10 -5 17 -10 54 -46 73 -60 81
-60 5 0 7 -3 4 -6 -4 -3 -20 2 -38 11 -36 18 -93 28 -85 14 4 -5 8 -34 11 -65
2 -31 7 -61 11 -67 11 -18 167 -85 247 -106 91 -24 146 -26 211 -9 l44 12 88
-59 c176 -118 358 -326 462 -529 48 -95 123 -316 107 -316 -3 0 -29 46 -57
101 -191 371 -545 635 -974 724 -173 36 -425 30 -601 -14 -58 -14 -70 -21 -72
-40 -3 -21 -1 -23 21 -17 232 58 576 7 839 -125 341 -171 619 -495 728 -849
42 -134 61 -260 67 -445 8 -231 -19 -369 -110 -553 -96 -195 -280 -322 -466
-322 -119 0 -267 66 -362 161 -150 149 -188 388 -93 576 15 29 25 54 23 56
-38 26 -164 141 -327 299 -111 108 -240 228 -287 265 -202 161 -447 265 -710
302 -44 6 -92 13 -107 16 -32 5 -47 -16 -105 -160 -107 -263 -130 -533 -68
-811 26 -114 82 -282 112 -334 13 -24 14 -22 8 25 -24 212 -27 269 -22 460 6
212 23 337 63 457 l16 48 37 -20 c74 -42 123 -148 196 -425 67 -258 124 -442
163 -533 82 -189 234 -373 402 -484 107 -71 162 -98 275 -136 164 -56 240 -67
450 -66 173 0 199 3 289 27 118 32 258 98 342 161 172 129 322 341 402 567 28
78 69 301 87 474 13 123 37 238 65 321 110 323 355 543 708 634 23 6 42 16 42
22 0 8 -29 9 -94 5 -118 -7 -262 -54 -376 -123 -106 -64 -234 -184 -305 -286
l-57 -83 6 80 c32 381 227 707 549 922 37 24 67 48 67 53 0 23 -27 16 -127
-35 -235 -119 -409 -302 -538 -562 l-51 -104 -52 104 c-124 250 -353 483 -594
603 -46 23 -57 35 -83 88 -26 53 -40 68 -107 113 -119 79 -165 93 -316 93
l-127 0 33 -20z m182 -110 c8 -5 11 -10 5 -10 -5 0 -17 5 -25 10 -8 5 -10 10
-5 10 6 0 17 -5 25 -10z"/>
<path d="M572 3388 c-3 -15 -15 -18 -58 -18 -50 0 -53 -1 -56 -27 -2 -23 -11
-31 -42 -41 -49 -16 -66 -29 -66 -52 0 -10 -11 -25 -25 -34 -14 -9 -25 -24
-25 -33 0 -9 -7 -25 -16 -35 -14 -14 -14 -20 -4 -33 7 -8 18 -15 25 -15 6 0
20 -9 31 -21 11 -13 26 -18 38 -15 13 3 29 -3 43 -16 19 -18 26 -19 54 -9 44
15 69 14 91 -5 17 -16 20 -15 57 9 27 18 42 22 49 15 14 -14 94 25 124 61 13
15 39 60 58 100 l34 72 -29 24 c-17 13 -57 39 -90 57 -49 26 -72 32 -124 33
-54 1 -65 -1 -69 -17z"/>
<path d="M3950 3127 c-36 -15 -62 -33 -77 -56 -30 -44 -29 -57 5 -90 l29 -26
-20 -38 c-49 -94 50 -128 258 -89 28 5 93 30 146 56 53 26 118 51 145 55 49 8
49 8 21 19 -16 7 -38 12 -50 12 -12 0 -59 30 -106 70 -132 110 -234 135 -351
87z"/>
<path d="M3872 1920 c-40 -10 -101 -34 -135 -52 -86 -46 -196 -156 -235 -238
-128 -262 -43 -590 185 -713 164 -88 450 -90 645 -4 82 36 88 50 88 189 l0
118 -59 0 c-32 0 -71 3 -87 6 -29 6 -29 5 -59 -88 -37 -114 -49 -123 -175
-122 -72 0 -93 4 -136 26 -118 62 -176 177 -176 352 0 109 21 197 69 288 44
84 64 93 198 93 141 0 176 -16 199 -93 9 -32 20 -75 24 -97 l8 -40 81 -3 81
-3 21 93 c44 188 41 206 -42 243 -141 61 -361 82 -495 45z"/>
<path d="M5022 1920 c-101 -27 -164 -63 -250 -144 -115 -109 -172 -245 -172
-410 0 -259 138 -441 380 -502 96 -24 272 -15 361 18 146 54 269 177 325 323
22 57 28 92 32 185 5 135 -7 204 -50 290 -61 123 -184 215 -327 246 -91 19
-212 17 -299 -6z m234 -159 c58 -26 111 -93 135 -171 29 -90 37 -278 16 -377
-36 -169 -78 -207 -227 -208 -97 0 -141 16 -196 73 -99 102 -131 328 -73 517
32 106 55 141 108 164 61 27 179 28 237 2z"/>
<path d="M9992 1920 c-101 -27 -164 -63 -250 -144 -115 -109 -172 -245 -172
-410 0 -259 138 -441 380 -502 96 -24 272 -15 361 18 146 54 269 177 325 323
22 57 28 92 32 185 5 135 -7 204 -50 290 -61 123 -184 215 -327 246 -91 19
-212 17 -299 -6z m234 -159 c58 -26 111 -93 135 -171 29 -90 37 -278 16 -377
-36 -169 -78 -207 -227 -208 -97 0 -141 16 -196 73 -99 102 -131 328 -73 517
32 106 55 141 108 164 61 27 179 28 237 2z"/>
<path d="M7680 1916 l-85 -11 -19 -55 c-39 -111 -190 -490 -262 -656 l-75
-170 -65 -32 c-50 -25 -64 -36 -60 -50 3 -9 8 -29 12 -44 l6 -28 234 0 234 0
7 43 c3 23 6 44 5 47 -1 3 -37 17 -80 31 -42 14 -77 30 -77 36 0 5 9 42 19 81
l20 71 50 6 c28 3 114 5 190 3 l139 -3 29 -85 c15 -46 28 -87 28 -90 0 -4 -25
-14 -55 -24 -30 -9 -57 -21 -60 -27 -4 -5 -4 -28 0 -49 l7 -40 258 0 257 0 7
41 c4 23 4 44 1 48 -3 3 -34 17 -68 31 -61 25 -62 26 -91 95 -74 179 -289 734
-303 787 l-16 58 -51 -1 c-28 -1 -89 -7 -136 -13z m69 -381 c33 -91 63 -176
67 -191 l7 -26 -131 4 c-72 2 -134 6 -138 10 -4 4 14 67 40 140 68 197 80 228
87 228 4 0 34 -74 68 -165z"/>
<path d="M9180 1920 c-107 -4 -295 -8 -417 -9 -246 -1 -220 6 -239 -63 -4 -13
9 -24 49 -43 30 -14 61 -32 67 -41 20 -23 32 -271 25 -504 -3 -113 -8 -217
-11 -231 -4 -21 -15 -29 -67 -46 -66 -21 -67 -24 -52 -90 l5 -23 284 0 283 0
7 41 c8 50 5 55 -41 64 -21 3 -57 15 -80 25 -50 22 -58 45 -69 193 l-7 99 165
-8 165 -7 12 64 c9 55 9 65 -6 81 -11 13 -26 17 -47 14 -17 -3 -89 -8 -160
-11 l-129 -7 6 182 c4 99 9 185 12 190 7 11 163 12 239 2 l50 -7 18 -85 c10
-46 20 -86 22 -88 2 -2 37 -6 78 -9 l75 -6 26 132 26 132 -22 34 c-16 26 -29
34 -47 33 -14 -1 -113 -5 -220 -8z"/>
<path d="M5899 1913 c-28 -3 -38 -10 -43 -26 -14 -51 -7 -63 45 -88 83 -38 82
-35 87 -328 2 -141 0 -303 -5 -360 l-8 -103 -55 -20 c-30 -11 -59 -24 -64 -28
-4 -5 -5 -27 -1 -49 l7 -41 239 0 c131 0 239 3 239 8 0 4 4 24 9 44 l9 38 -42
11 c-22 6 -62 20 -87 31 -56 23 -57 26 -64 243 -3 83 -7 179 -10 213 -4 58 -3
63 12 50 32 -26 304 -373 386 -491 45 -65 87 -126 93 -134 8 -12 27 -14 111
-8 l100 7 7 392 c3 215 9 417 12 448 l6 57 64 22 c67 24 72 32 58 87 l-6 22
-229 0 c-125 0 -230 -3 -233 -8 -2 -4 -7 -23 -11 -42 l-6 -35 61 -19 c94 -29
98 -35 109 -151 14 -142 21 -385 12 -385 -20 0 -416 507 -468 600 l-28 50
-135 -2 c-74 -1 -151 -3 -171 -5z"/>
<path d="M10998 1913 c-149 -4 -135 2 -154 -62 -4 -16 5 -25 49 -46 30 -14 61
-32 67 -41 20 -23 32 -271 25 -504 -3 -113 -8 -217 -11 -231 -4 -21 -15 -29
-67 -46 -66 -21 -67 -24 -52 -90 l5 -23 254 0 254 0 6 31 c10 53 8 58 -47 84
-33 15 -58 35 -65 50 -7 14 -15 77 -19 140 l-6 115 85 0 85 0 90 -187 c50
-104 94 -198 97 -210 7 -23 10 -23 161 -23 85 0 156 3 158 8 3 4 8 25 11 48
l7 40 -49 23 c-41 19 -56 35 -99 104 -64 102 -153 262 -153 273 0 5 20 22 44
37 55 35 113 98 134 146 9 21 16 65 16 106 1 117 -52 184 -185 237 -49 20 -74
22 -279 23 -124 1 -287 0 -362 -2z m492 -138 c79 -41 90 -206 19 -304 l-29
-41 -108 0 c-59 0 -113 4 -121 9 -12 8 -13 37 -7 172 3 89 8 165 11 167 24 24
186 22 235 -3z"/>
<path d="M5660 589 c0 -5 6 -7 13 -3 7 4 8 3 4 -2 -5 -5 -16 -9 -24 -9 -9 0
-18 -5 -20 -12 -5 -15 33 -9 53 8 12 10 12 14 2 20 -18 12 -28 11 -28 -2z"/>
<path d="M3755 511 c11 -5 23 -7 28 -4 4 2 7 -1 7 -8 0 -11 -17 -10 -66 6 -14
4 -27 0 -39 -12 -10 -10 -23 -18 -28 -18 -17 0 -47 -68 -47 -105 0 -35 29
-103 43 -101 4 1 16 -8 27 -19 11 -11 30 -20 43 -19 12 0 16 3 10 6 -27 10
-11 24 26 22 27 -2 37 -7 34 -16 -7 -17 11 -16 47 2 33 17 37 27 17 43 -8 7
-18 6 -31 -4 -11 -8 -40 -14 -64 -14 -35 0 -49 6 -73 29 -74 75 7 208 105 171
24 -9 46 3 46 24 0 5 -3 6 -6 3 -4 -3 -16 0 -28 8 -11 8 -32 15 -46 14 -23 0
-23 -1 -5 -8z m-78 -69 c-14 -15 -29 -39 -32 -54 -4 -16 -11 -25 -16 -22 -5 3
-6 11 -2 17 4 7 8 14 8 17 5 32 18 69 24 66 4 -3 13 -1 21 4 26 16 24 0 -3
-28z m-30 -105 c-3 -8 3 -20 14 -28 23 -16 24 -25 3 -33 -8 -3 -12 -2 -9 3 3
6 0 13 -7 18 -15 10 -20 53 -6 53 6 0 8 -6 5 -13z m57 -79 c-3 -4 -9 -8 -15
-8 -5 0 -9 4 -9 8 0 5 7 9 15 9 8 0 12 -4 9 -9z m136 1 c0 -4 -7 -9 -15 -13
-9 -3 -15 0 -15 8 0 7 7 13 15 13 8 0 15 -4 15 -8z"/>
<path d="M3659 443 c-13 -16 -12 -17 4 -4 16 13 21 21 13 21 -2 0 -10 -8 -17
-17z"/>
<path d="M4080 512 c0 -5 -10 -8 -22 -8 -14 1 -22 -4 -20 -12 1 -8 -2 -11 -8
-7 -5 3 -19 1 -31 -5 -18 -10 -19 -13 -6 -28 8 -9 12 -23 10 -30 -3 -7 8 0 24
15 16 15 28 30 27 34 -4 8 81 3 94 -5 8 -4 12 0 12 10 0 17 1 17 13 0 7 -9 19
-18 27 -19 8 -2 22 -7 30 -11 8 -5 2 5 -14 23 -36 38 -136 70 -136 43z m-57
-59 c-3 -7 -9 -10 -14 -7 -14 8 -11 21 5 21 8 0 12 -6 9 -14z"/>
<path d="M4372 368 l2 -153 3 122 c3 93 7 124 19 134 12 10 19 9 35 -8 16 -15
17 -20 5 -20 -8 0 -13 4 -10 9 3 4 -2 8 -10 8 -13 0 -15 -19 -15 -120 1 -66 5
-120 10 -120 5 0 9 47 9 105 0 58 3 105 8 105 4 0 15 -17 24 -38 l17 -37 -4
33 c-2 19 -1 31 3 27 7 -7 8 -12 11 -42 1 -15 3 -15 10 -4 6 10 -2 36 -26 83
-31 60 -39 68 -64 68 l-29 0 2 -152z"/>
<path d="M4626 504 c-3 -8 -2 -12 4 -9 6 4 9 -5 8 -20 -2 -24 -3 -25 -16 -8
-14 17 -14 17 -9 -4 3 -15 0 -23 -7 -23 -7 0 -18 -11 -24 -25 -16 -34 -15 -35
8 -35 21 0 45 34 35 50 -3 6 1 10 9 10 18 0 18 -3 16 -135 -1 -49 1 -87 4 -85
3 3 6 52 7 108 1 56 6 102 10 102 4 0 6 -11 4 -25 -1 -14 2 -25 6 -25 5 0 9
22 9 49 0 41 -3 50 -21 54 -20 5 -18 27 2 27 6 0 7 -5 3 -12 -4 -7 -3 -8 4 -4
21 13 13 26 -17 26 -17 0 -31 -6 -35 -16z m54 -54 c0 -5 -2 -10 -4 -10 -3 0
-8 5 -11 10 -3 6 -1 10 4 10 6 0 11 -4 11 -10z m-70 -44 c0 -3 -4 -8 -10 -11
-5 -3 -10 -1 -10 4 0 6 5 11 10 11 6 0 10 -2 10 -4z"/>
<path d="M4820 510 c0 -9 14 -14 33 -11 4 0 7 -4 7 -10 0 -6 -9 -9 -19 -6 -18
4 -19 -3 -18 -132 l1 -136 5 123 c4 71 10 122 16 122 6 0 12 -51 15 -122 l6
-123 2 153 2 152 -25 0 c-14 0 -25 -4 -25 -10z"/>
<path d="M5070 512 c-36 -17 -59 -40 -65 -65 -11 -44 15 -72 90 -97 56 -19 65
-25 65 -46 0 -33 -39 -48 -91 -34 -21 6 -41 15 -44 20 -3 6 -11 10 -17 10 -7
0 -6 -6 2 -15 7 -8 19 -15 26 -15 8 0 14 -4 14 -9 0 -5 8 -7 19 -4 10 3 21 1
25 -5 3 -5 -8 -9 -24 -10 -17 0 -30 4 -30 10 0 6 -3 8 -7 5 -3 -4 -15 0 -25
10 -10 9 -18 11 -18 5 0 -15 58 -45 75 -38 8 3 15 0 17 -6 6 -17 90 3 95 22 4
12 3 12 -5 1 -7 -9 -12 -10 -16 -2 -7 11 33 32 46 24 13 -7 20 45 9 64 -6 11
-11 13 -12 6 -1 -7 -2 -17 -3 -22 -3 -21 -12 -18 -14 4 -4 59 -8 65 -28 45 -6
-6 -21 -6 -39 -1 l-30 9 35 2 35 1 -45 17 c-89 34 -51 99 40 68 34 -12 46 -12
52 -3 9 15 11 33 1 24 -3 -4 -11 0 -17 8 -12 17 -93 29 -116 17z m58 -15 c7
-5 21 -5 32 -2 11 4 20 2 20 -4 0 -5 -16 -7 -37 -5 -21 3 -43 5 -50 6 -7 1
-10 5 -8 9 6 9 25 7 43 -4z m-68 -28 c0 -5 -6 -9 -13 -9 -20 0 -14 -36 11 -65
17 -19 18 -25 7 -25 -8 0 -15 5 -15 10 0 6 -5 9 -12 8 -7 -2 -13 7 -14 18 0
12 -4 26 -7 31 -8 13 22 55 34 48 5 -4 9 -10 9 -16z m75 -219 c-3 -5 -12 -10
-18 -10 -7 0 -6 4 3 10 19 12 23 12 15 0z"/>
<path d="M5332 368 c2 -152 2 -152 5 -33 5 166 23 175 23 12 0 -80 4 -127 10
-127 7 0 10 53 9 150 l-1 150 -24 0 -24 0 2 -152z"/>
<path d="M5615 510 c-3 -5 -12 -7 -20 -3 -8 3 -15 0 -15 -7 0 -6 5 -8 10 -5 6
3 10 0 10 -8 0 -7 -7 -14 -15 -14 -8 0 -15 6 -15 14 0 10 -4 11 -19 1 -17 -10
-17 -13 -4 -26 13 -13 13 -16 -2 -25 -12 -6 -20 -6 -25 3 -13 22 -33 -47 -26
-92 9 -55 23 -73 44 -56 13 11 14 10 8 -9 -13 -42 76 -71 152 -50 28 7 86 64
73 71 -5 3 -9 30 -9 58 0 93 -1 97 -21 95 -18 -1 -18 -3 -4 -31 22 -42 11
-105 -22 -133 -19 -17 -22 -23 -10 -23 8 0 18 7 21 15 4 8 13 15 20 15 12 0
11 -4 -3 -19 -20 -22 -81 -41 -69 -22 9 14 1 14 -25 1 -11 -6 -19 -7 -19 -1 0
5 -11 12 -25 15 -13 3 -34 20 -47 36 -16 23 -25 27 -35 19 -10 -9 -13 -5 -13
19 0 17 5 34 11 38 8 4 9 0 4 -15 -4 -12 -2 -21 4 -21 6 0 11 14 11 30 0 17 1
33 3 37 4 12 42 49 52 50 47 9 82 9 93 1 8 -7 12 -7 12 1 0 6 10 11 23 11 21
1 22 1 3 15 -23 17 -46 20 -46 4 0 -5 5 -7 12 -3 7 4 8 3 4 -4 -5 -8 -13 -9
-24 -3 -9 4 -27 7 -39 6 -12 -1 -20 3 -16 8 3 5 16 7 29 4 13 -2 24 0 24 4 0
12 -47 11 -55 -1z m-47 -55 c-3 -3 -9 2 -12 12 -6 14 -5 15 5 6 7 -7 10 -15 7
-18z m-28 -39 c0 -3 -4 -8 -10 -11 -5 -3 -10 -1 -10 4 0 6 5 11 10 11 6 0 10
-2 10 -4z m-4 -111 c-3 -9 -11 -13 -16 -10 -8 5 -7 11 1 21 14 18 24 11 15
-11z m48 -31 c9 -3 16 -14 15 -23 0 -10 -2 -11 -6 -3 -2 6 -9 10 -14 6 -5 -3
-9 0 -9 6 0 6 -4 8 -10 5 -5 -3 -10 -1 -10 4 0 12 11 14 34 5z"/>
<path d="M5900 370 c0 -93 4 -150 10 -150 9 0 13 32 13 123 0 20 3 37 7 37 4
0 7 -8 7 -17 0 -48 7 -41 12 12 l6 59 78 -104 c56 -76 84 -105 102 -107 24 -4
25 -1 25 47 0 28 -5 50 -11 50 -5 0 -8 -3 -6 -7 3 -5 -11 -9 -30 -10 -26 -1
-33 2 -29 12 3 8 -3 22 -12 32 -9 11 -13 14 -9 7 12 -19 -6 -24 -28 -8 -10 8
-15 14 -9 14 5 0 2 6 -6 13 -8 7 -16 19 -18 27 -3 11 1 11 16 -3 37 -34 30
-16 -21 53 -37 50 -58 70 -74 70 -23 0 -23 -1 -23 -150z m37 121 c0 -11 -5
-17 -9 -15 -11 7 -10 34 1 34 6 0 9 -9 8 -19z"/>
<path d="M6110 439 c0 -54 3 -78 11 -74 6 4 5 -2 -3 -14 -10 -16 -10 -23 -1
-32 10 -10 14 -8 18 7 4 10 11 27 16 37 7 13 5 17 -11 17 -17 0 -20 7 -20 40
0 22 4 40 9 40 5 0 7 9 4 20 -4 14 0 20 11 20 9 0 16 5 16 10 0 6 -11 10 -25
10 -25 0 -25 -1 -25 -81z"/>
<path d="M6452 368 l2 -153 3 123 c3 97 7 124 18 128 8 4 13 9 10 13 -2 4 2 8
10 8 8 0 12 -4 9 -9 -3 -4 0 -8 6 -8 6 0 8 -4 5 -10 -3 -6 1 -7 10 -3 9 3 12
9 7 12 -5 3 -14 16 -21 29 -7 14 -21 22 -36 22 l-25 0 2 -152z"/>
<path d="M6660 509 c0 -6 8 -9 18 -7 12 3 19 0 19 -9 0 -9 -7 -13 -19 -9 -18
4 -19 -1 -18 -57 3 -116 2 -121 -17 -106 -9 8 -23 13 -32 11 -10 -1 -21 9 -28
27 -9 25 -9 29 5 23 10 -3 5 8 -12 31 -30 39 -40 44 -52 25 -5 -7 -3 -8 7 -3
11 7 12 6 2 -6 -11 -13 -6 -25 26 -67 21 -28 41 -49 44 -45 4 3 9 -2 13 -11 3
-9 11 -13 18 -9 8 4 7 2 -1 -7 -16 -17 23 -70 52 -70 18 0 22 7 24 45 2 39 0
44 -15 38 -11 -4 -15 -3 -11 4 4 6 1 14 -5 16 -7 3 -8 6 -3 6 7 1 9 25 7 66
-3 45 0 65 8 65 8 0 10 -22 8 -70 -2 -38 0 -70 5 -70 4 0 7 45 6 100 -1 98 -2
100 -25 100 -13 0 -24 -5 -24 -11z m-92 -110 c-2 -6 -8 -10 -13 -10 -5 0 -11
4 -13 10 -2 6 4 11 13 11 9 0 15 -5 13 -11z"/>
<path d="M6900 435 c-22 -47 -40 -91 -40 -98 0 -6 -7 -21 -15 -31 -15 -20 -11
-41 6 -30 5 3 7 10 4 15 -4 5 -1 9 4 9 6 0 11 -3 11 -7 0 -5 38 -7 84 -5 l84
3 12 -35 c6 -20 15 -36 19 -36 16 0 20 14 10 27 -8 9 -8 13 -1 13 6 0 14 -9
17 -21 4 -11 9 -18 12 -15 9 8 -18 66 -28 60 -5 -3 -6 2 -3 10 7 18 -14 59
-26 51 -5 -3 -6 -13 -3 -21 5 -14 3 -15 -16 -4 -12 6 -37 11 -54 10 -71 -4
-79 -2 -67 21 7 11 9 23 6 27 -3 3 -6 1 -6 -5 0 -6 -6 -13 -13 -16 -8 -3 -14
1 -14 9 0 8 4 14 9 14 11 0 34 53 37 86 1 9 6 12 14 8 6 -4 9 -4 5 1 -9 9 9
35 23 35 13 0 11 -28 -2 -32 -7 -2 -5 -18 6 -46 14 -34 20 -40 31 -31 7 6 18
8 23 5 5 -4 -2 21 -16 54 -21 48 -31 60 -49 60 -19 0 -30 -15 -64 -85z m124
-125 c3 -3 -29 -6 -70 -6 -41 -1 -74 2 -74 6 0 9 135 8 144 0z"/>
<path d="M7285 509 c-16 -5 -41 -18 -55 -29 -22 -17 -23 -20 -6 -20 11 0 28 7
38 17 10 9 18 11 18 5 0 -6 18 -10 44 -9 24 1 42 6 39 11 -4 5 0 6 7 1 17 -11
60 -13 60 -4 0 9 -77 39 -98 38 -9 0 -30 -5 -47 -10z"/>
<path d="M7552 368 l2 -153 3 123 c2 67 8 122 12 122 5 0 7 9 4 20 -4 14 0 20
11 20 9 0 16 5 16 10 0 6 -11 10 -25 10 l-25 0 2 -152z"/>
<path d="M7840 512 c0 -5 -10 -8 -22 -8 -14 1 -22 -4 -20 -12 1 -8 -2 -11 -8
-7 -5 3 -19 1 -31 -5 -18 -10 -19 -13 -6 -28 8 -9 12 -23 10 -30 -3 -7 8 0 24
15 16 15 28 30 27 34 -4 8 81 3 94 -5 8 -4 12 0 12 10 0 17 1 17 13 0 7 -9 19
-18 27 -19 8 -2 22 -7 30 -11 8 -5 2 5 -14 23 -36 38 -136 70 -136 43z m-57
-59 c-3 -7 -9 -10 -14 -7 -14 8 -11 21 5 21 8 0 12 -6 9 -14z"/>
<path d="M8132 368 l2 -153 3 123 c3 97 7 124 18 128 8 4 13 9 10 13 -2 4 2 8
10 8 8 0 12 -4 9 -9 -3 -4 0 -8 6 -8 6 0 8 -4 5 -10 -3 -6 1 -7 10 -3 9 3 12
9 7 12 -5 3 -14 16 -21 29 -7 14 -21 22 -36 22 l-25 0 2 -152z"/>
<path d="M8340 509 c0 -6 8 -9 18 -7 12 3 19 0 19 -9 0 -9 -7 -13 -19 -9 -18
4 -19 -1 -18 -57 3 -116 2 -121 -17 -106 -9 8 -23 13 -32 11 -10 -1 -21 9 -28
27 -9 25 -9 29 5 23 10 -3 5 8 -12 31 -30 39 -40 44 -52 25 -5 -7 -3 -8 7 -3
11 7 12 6 2 -6 -11 -13 -6 -25 26 -67 21 -28 41 -49 44 -45 4 3 9 -2 13 -11 3
-9 11 -13 18 -9 8 4 7 2 -1 -7 -16 -17 23 -70 52 -70 18 0 22 7 24 45 2 39 0
44 -15 38 -11 -4 -15 -3 -11 4 4 6 1 14 -5 16 -7 3 -8 6 -3 6 7 1 9 25 7 66
-3 45 0 65 8 65 8 0 10 -22 8 -70 -2 -38 0 -70 5 -70 4 0 7 45 6 100 -1 98 -2
100 -25 100 -13 0 -24 -5 -24 -11z m-92 -110 c-2 -6 -8 -10 -13 -10 -5 0 -11
4 -13 10 -2 6 4 11 13 11 9 0 15 -5 13 -11z"/>
<path d="M8580 435 c-22 -47 -40 -91 -40 -98 0 -6 -7 -21 -15 -31 -15 -20 -11
-41 6 -30 5 3 7 10 4 15 -4 5 -1 9 4 9 6 0 11 -3 11 -7 0 -5 38 -7 84 -5 l84
3 12 -35 c6 -20 15 -36 19 -36 16 0 20 14 10 27 -8 9 -8 13 -1 13 6 0 14 -9
17 -21 4 -11 9 -18 12 -15 9 8 -18 66 -28 60 -5 -3 -6 2 -3 10 7 18 -14 59
-26 51 -5 -3 -6 -13 -3 -21 5 -14 3 -15 -16 -4 -12 6 -37 11 -54 10 -71 -4
-79 -2 -67 21 7 11 9 23 6 27 -3 3 -6 1 -6 -5 0 -6 -6 -13 -13 -16 -8 -3 -14
1 -14 9 0 8 4 14 9 14 11 0 34 53 37 86 1 9 6 12 14 8 6 -4 9 -4 5 1 -9 9 9
35 23 35 13 0 11 -28 -2 -32 -7 -2 -5 -18 6 -46 14 -34 20 -40 31 -31 7 6 18
8 23 5 5 -4 -2 21 -16 54 -21 48 -31 60 -49 60 -19 0 -30 -15 -64 -85z m124
-125 c3 -3 -29 -6 -70 -6 -41 -1 -74 2 -74 6 0 9 135 8 144 0z"/>
<path d="M8890 371 c0 -124 3 -151 14 -151 8 0 17 6 19 13 4 9 8 8 17 -3 9
-11 13 -12 17 -2 6 16 85 16 101 0 9 -9 12 -7 12 10 0 20 -5 22 -65 22 l-64 0
-3 128 c-3 123 -4 127 -25 130 -23 3 -23 3 -23 -147z m39 29 c1 -65 -2 -100
-9 -100 -7 0 -7 -6 0 -21 7 -11 9 -23 7 -26 -3 -2 -11 5 -17 17 -11 20 -13
212 -2 233 12 24 20 -15 21 -103z"/>
<path d="M9332 368 c2 -152 2 -152 5 -33 2 66 8 124 13 129 7 7 10 -11 10 -48
0 -35 4 -55 10 -51 6 3 10 -1 10 -10 0 -10 -5 -13 -12 -9 -6 4 -9 3 -6 -2 8
-12 158 -5 158 7 0 5 -26 9 -58 9 -32 0 -63 5 -70 12 -7 7 -12 34 -12 60 l0
48 75 0 c68 0 75 2 75 20 0 19 -7 20 -100 20 l-100 0 2 -152z m188 132 c0 -12
-147 -12 -155 -1 -2 4 32 8 76 9 51 2 79 -1 79 -8z"/>
<path d="M9745 509 c-4 -6 -14 -8 -22 -5 -17 7 -89 -34 -76 -43 14 -10 14 -30
0 -59 -16 -31 -10 -62 16 -92 9 -11 17 -24 17 -29 0 -5 10 -12 23 -16 21 -7
21 -7 2 -12 -10 -3 -21 0 -23 6 -2 6 -11 19 -20 28 -10 9 -17 19 -17 22 -1 3
-6 15 -12 26 -6 11 -8 29 -6 40 13 61 13 79 1 67 -8 -8 -13 -38 -13 -72 0 -55
3 -62 35 -95 31 -31 89 -58 75 -35 -3 5 3 13 12 19 16 9 16 10 -4 11 -11 0
-33 14 -47 31 -24 29 -26 37 -23 103 3 56 7 72 20 74 20 4 23 -14 5 -21 -7 -2
-10 -7 -7 -11 3 -3 14 2 25 12 18 17 86 23 100 9 4 -3 13 0 21 8 13 13 16 13
29 0 23 -23 45 -83 34 -90 -6 -4 -10 -3 -8 2 3 14 -31 83 -41 83 -16 0 -14 -7
10 -40 37 -50 20 -121 -36 -150 -16 -8 -32 -18 -33 -23 -2 -4 -7 -5 -12 -2 -4
3 -13 -2 -20 -10 -19 -23 6 -19 37 4 13 11 31 17 39 14 8 -3 14 0 14 6 0 6 5
11 11 11 5 0 7 -4 4 -10 -11 -17 11 -11 26 8 16 19 39 59 39 67 0 17 -28 0
-38 -22 -10 -25 -11 -25 -5 -3 3 14 6 31 6 39 0 8 9 16 19 19 22 5 21 4 4 45
-16 39 -73 90 -92 83 -7 -3 -16 -1 -19 4 -8 13 -42 13 -50 -1z m40 -9 c4 -6
-5 -10 -20 -10 -15 0 -24 4 -20 10 3 6 12 10 20 10 8 0 17 -4 20 -10z"/>
<path d="M10032 368 l2 -153 3 123 c2 67 8 122 12 122 5 0 7 8 4 19 -3 14 2
20 23 25 16 4 31 2 38 -5 8 -9 7 -10 -6 -6 -10 3 -20 2 -23 -4 -4 -5 -11 -6
-17 -3 -7 5 -8 2 -3 -5 4 -8 11 -9 17 -3 11 11 104 -3 124 -19 14 -12 19 -55
8 -83 -3 -9 -25 -18 -52 -22 -26 -3 -53 -12 -61 -18 -12 -9 -13 -8 -6 3 5 10
4 12 -3 7 -7 -4 -12 -14 -12 -22 0 -10 12 -14 44 -14 34 0 47 -5 60 -22 13
-17 16 -18 12 -5 -4 12 -2 16 5 11 7 -4 10 -1 7 7 -3 8 2 20 11 27 14 10 12
11 -11 8 -15 -3 -32 -7 -38 -11 -5 -3 -10 -1 -10 4 0 6 7 12 15 12 24 2 29 4
43 12 6 5 16 5 22 2 6 -3 7 1 4 9 -4 11 0 16 10 16 19 0 22 50 4 68 -7 7 -8
12 -3 12 5 0 -2 11 -15 25 -22 24 -50 33 -50 18 0 -5 -11 -9 -25 -9 -14 -1
-25 2 -25 8 0 5 5 6 10 3 6 -3 10 -1 10 4 0 7 -26 11 -65 11 l-65 0 2 -152z
m228 47 c0 -14 -4 -25 -9 -25 -6 0 -8 36 -2 48 5 10 11 -2 11 -23z"/>
<path d="M10390 370 c0 -132 2 -150 16 -150 14 0 14 3 4 15 -9 11 -9 15 -1 15
6 0 14 -7 17 -15 3 -8 16 -14 29 -13 13 1 21 6 19 10 -3 4 15 8 40 8 24 0 53
3 63 6 17 5 17 5 0 -9 -16 -14 -16 -14 8 -14 18 0 25 5 25 18 0 16 -9 18 -80
17 -44 0 -83 2 -87 6 -4 3 -6 29 -4 56 2 40 0 49 -12 44 -19 -7 -24 9 -25 78
0 45 3 57 17 58 136 10 161 10 161 2 0 -5 -30 -10 -67 -11 -46 -1 -72 -7 -79
-16 -6 -8 -13 -12 -16 -9 -3 3 -5 -16 -4 -43 l3 -48 75 3 c42 2 79 -1 82 -6 4
-6 -19 -10 -54 -10 -34 1 -64 -2 -67 -6 -4 -4 25 -6 64 -5 63 2 71 4 70 20 -1
17 -10 19 -74 19 l-73 0 0 45 0 45 80 0 c73 0 80 2 80 20 0 19 -7 20 -105 20
l-105 0 0 -150z m27 -65 c-1 -53 -8 -51 -14 5 -3 24 -1 40 5 40 6 0 10 -20 9
-45z"/>
<path d="M10785 511 c-3 -6 -10 -9 -14 -6 -5 2 -17 -2 -27 -10 -16 -12 -17
-16 -5 -27 8 -7 11 -8 8 -2 -9 15 20 27 29 12 4 -6 3 -8 -2 -5 -6 3 -11 -6
-12 -20 -3 -35 -11 -42 -23 -20 -13 23 -29 22 -29 -2 0 -23 29 -61 50 -65 8
-2 26 -8 40 -13 68 -28 89 -26 53 4 -15 12 -15 15 -4 20 9 4 -2 12 -30 22 -52
20 -61 45 -27 75 13 11 18 17 11 12 -8 -5 -13 -4 -13 2 0 16 28 22 39 8 6 -7
9 -16 6 -19 -3 -4 -2 -5 1 -2 4 2 20 -3 36 -11 17 -9 32 -13 34 -11 3 2 -12
12 -33 22 -21 10 -32 20 -25 23 7 2 24 -3 37 -12 28 -18 35 -20 35 -6 0 24
-122 52 -135 31z m-2 -120 c-2 -6 2 -11 7 -11 6 0 10 -5 10 -11 0 -8 -4 -9
-13 0 -8 6 -16 8 -19 6 -3 -3 -8 3 -11 14 -3 13 0 18 12 16 9 -1 15 -8 14 -14z"/>
<path d="M11010 499 c0 -16 7 -19 45 -19 l45 0 0 -130 c0 -80 4 -130 10 -130
6 0 10 47 10 120 0 160 18 158 23 -2 l3 -123 2 133 2 132 50 0 c44 0 50 3 50
20 0 20 -5 21 -120 19 -111 -1 -120 -3 -120 -20z m60 3 c0 -10 -38 -13 -44 -3
-3 3 6 8 20 9 13 1 24 -2 24 -6z m60 -28 c0 -3 -7 -1 -15 6 -8 7 -15 17 -15
22 0 5 7 3 15 -6 8 -8 15 -18 15 -22z m95 26 c3 -5 -1 -10 -9 -10 -9 0 -16 5
-16 10 0 6 4 10 9 10 6 0 13 -4 16 -10z"/>
<path d="M11380 435 c-22 -47 -40 -91 -40 -98 0 -6 -7 -21 -15 -31 -15 -20
-11 -41 6 -30 5 3 7 10 4 15 -4 5 -1 9 4 9 6 0 11 -3 11 -7 0 -5 38 -7 84 -5
l84 3 12 -35 c6 -20 15 -36 19 -36 16 0 20 14 10 27 -8 9 -8 13 -1 13 6 0 14
-9 17 -21 4 -11 9 -18 12 -15 9 8 -18 66 -28 60 -5 -3 -6 2 -3 10 7 18 -14 59
-26 51 -5 -3 -6 -13 -3 -21 5 -14 3 -15 -16 -4 -12 6 -37 11 -54 10 -71 -4
-79 -2 -67 21 7 11 9 23 6 27 -3 3 -6 1 -6 -5 0 -6 -6 -13 -13 -16 -8 -3 -14
1 -14 9 0 8 4 14 9 14 11 0 34 53 37 86 1 9 6 12 14 8 6 -4 9 -4 5 1 -9 9 9
35 23 35 13 0 11 -28 -2 -32 -7 -2 -5 -18 6 -46 14 -34 20 -40 31 -31 7 6 18
8 23 5 5 -4 -2 21 -16 54 -21 48 -31 60 -49 60 -19 0 -30 -15 -64 -85z m124
-125 c3 -3 -29 -6 -70 -6 -41 -1 -74 2 -74 6 0 9 135 8 144 0z"/>
<path d="M11690 371 c0 -124 3 -151 14 -151 8 0 17 6 19 13 4 9 8 8 17 -3 9
-11 13 -12 17 -2 6 16 85 16 101 0 9 -9 12 -7 12 10 0 20 -5 22 -65 22 l-64 0
-3 128 c-3 123 -4 127 -25 130 -23 3 -23 3 -23 -147z m39 29 c1 -65 -2 -100
-9 -100 -7 0 -7 -6 0 -21 7 -11 9 -23 7 -26 -3 -2 -11 5 -17 17 -11 20 -13
212 -2 233 12 24 20 -15 21 -103z"/>
<path d="M6486 460 c-7 -20 -3 -69 5 -64 11 6 16 52 8 66 -6 10 -9 9 -13 -2z"/>
<path d="M8166 460 c-7 -20 -3 -69 5 -64 11 6 16 52 8 66 -6 10 -9 9 -13 -2z"/>
<path d="M3835 450 c4 -6 11 -8 16 -5 14 9 11 15 -7 15 -8 0 -12 -5 -9 -10z"/>
<path d="M6940 458 c-2 -5 -3 -12 -4 -17 0 -5 -4 -13 -8 -17 -5 -4 -8 -14 -8
-23 1 -10 7 -5 16 12 8 16 13 34 10 40 -2 7 -5 9 -6 5z"/>
<path d="M7241 451 c-8 -5 -19 -7 -26 -5 -14 6 -35 -38 -35 -74 0 -49 11 -72
34 -72 17 0 18 -2 6 -10 -13 -9 -11 -13 10 -30 54 -43 141 -46 195 -6 16 12
17 16 6 30 -12 14 -15 14 -34 1 -12 -8 -41 -15 -66 -15 -37 0 -49 5 -77 35
-32 34 -52 47 -38 23 4 -7 3 -8 -4 -4 -12 7 -13 56 -1 56 4 0 10 -8 12 -17 3
-10 5 -4 6 13 0 17 10 43 22 58 21 26 16 33 -10 17z m50 -196 c11 6 11 5 2 -5
-12 -14 -33 -6 -33 13 0 8 3 7 9 -2 5 -8 14 -10 22 -6z m69 -6 c0 -5 -11 -8
-25 -7 -14 1 -25 5 -25 9 0 4 11 7 25 7 14 0 25 -4 25 -9z"/>
<path d="M7405 450 c4 -6 11 -8 16 -5 14 9 11 15 -7 15 -8 0 -12 -5 -9 -10z"/>
<path d="M8620 458 c-2 -5 -3 -12 -4 -17 0 -5 -4 -13 -8 -17 -5 -4 -8 -14 -8
-23 1 -10 7 -5 16 12 8 16 13 34 10 40 -2 7 -5 9 -6 5z"/>
<path d="M11420 458 c-2 -5 -3 -12 -4 -17 0 -5 -4 -13 -8 -17 -5 -4 -8 -14 -8
-23 1 -10 7 -5 16 12 8 16 13 34 10 40 -2 7 -5 9 -6 5z"/>
<path d="M3961 425 c-16 -39 -7 -113 16 -130 10 -8 37 -19 61 -26 23 -6 42
-16 42 -21 0 -6 -8 -7 -17 -3 -32 12 -54 14 -48 4 4 -5 11 -7 16 -4 5 4 9 2 9
-3 0 -16 67 -24 108 -13 34 10 109 71 86 71 -5 0 -3 4 4 9 24 15 28 125 4 119
-4 -1 -18 4 -31 11 -22 12 -23 12 -15 -5 16 -35 10 -108 -11 -134 -24 -29 -36
-33 -89 -33 -31 0 -46 7 -66 30 -23 25 -28 28 -37 15 -8 -14 -10 -14 -16 2 -4
11 -3 15 4 10 8 -5 8 -1 0 14 -8 15 -7 23 4 32 22 18 18 33 -6 27 -16 -4 -18
-3 -9 8 7 8 10 22 7 32 -3 14 -6 12 -16 -12z m279 -41 c-5 -12 -6 -25 -2 -30
4 -4 1 -4 -6 1 -8 4 -12 15 -9 25 2 9 0 25 -5 34 -9 15 -7 16 10 5 16 -10 18
-18 12 -35z m0 -54 c0 -5 -4 -10 -10 -10 -5 0 -10 5 -10 10 0 6 5 10 10 10 6
0 10 -4 10 -10z m-43 -55 c0 -8 -4 -12 -9 -9 -5 3 -6 10 -3 15 9 13 12 11 12
-6z m-17 -19 c0 -3 -4 -8 -10 -11 -5 -3 -10 -1 -10 4 0 6 5 11 10 11 6 0 10
-2 10 -4z"/>
<path d="M7721 425 c-16 -39 -7 -113 16 -130 10 -8 37 -19 61 -26 23 -6 42
-16 42 -21 0 -6 -8 -7 -17 -3 -32 12 -54 14 -48 4 4 -5 11 -7 16 -4 5 4 9 2 9
-3 0 -16 67 -24 108 -13 34 10 109 71 86 71 -5 0 -3 4 4 9 24 15 28 125 4 119
-4 -1 -18 4 -31 11 -22 12 -23 12 -15 -5 16 -35 10 -108 -11 -134 -24 -29 -36
-33 -89 -33 -31 0 -46 7 -66 30 -23 25 -28 28 -37 15 -8 -14 -10 -14 -16 2 -4
11 -3 15 4 10 8 -5 8 -1 0 14 -8 15 -7 23 4 32 22 18 18 33 -6 27 -16 -4 -18
-3 -9 8 7 8 10 22 7 32 -3 14 -6 12 -16 -12z m279 -41 c-5 -12 -6 -25 -2 -30
4 -4 1 -4 -6 1 -8 4 -12 15 -9 25 2 9 0 25 -5 34 -9 15 -7 16 10 5 16 -10 18
-18 12 -35z m0 -54 c0 -5 -4 -10 -10 -10 -5 0 -10 5 -10 10 0 6 5 10 10 10 6
0 10 -4 10 -10z m-43 -55 c0 -8 -4 -12 -9 -9 -5 3 -6 10 -3 15 9 13 12 11 12
-6z m-17 -19 c0 -3 -4 -8 -10 -11 -5 -3 -10 -1 -10 4 0 6 5 11 10 11 6 0 10
-2 10 -4z"/>
<path d="M5779 424 c-5 -40 -3 -114 3 -114 11 0 19 41 15 78 -4 31 -16 55 -18
36z"/>
<path d="M7006 382 c-7 -12 3 -42 14 -42 5 0 12 5 16 12 5 7 3 8 -6 3 -8 -5
-11 -4 -7 1 3 6 2 16 -2 23 -6 8 -11 9 -15 3z"/>
<path d="M7030 380 c0 -5 5 -10 11 -10 5 0 7 5 4 10 -3 6 -8 10 -11 10 -2 0
-4 -4 -4 -10z"/>
<path d="M8686 382 c-7 -12 3 -42 14 -42 5 0 12 5 16 12 5 7 3 8 -6 3 -8 -5
-11 -4 -7 1 3 6 2 16 -2 23 -6 8 -11 9 -15 3z"/>
<path d="M8710 380 c0 -5 5 -10 11 -10 5 0 7 5 4 10 -3 6 -8 10 -11 10 -2 0
-4 -4 -4 -10z"/>
<path d="M11486 382 c-7 -12 3 -42 14 -42 5 0 12 5 16 12 5 7 3 8 -6 3 -8 -5
-11 -4 -7 1 3 6 2 16 -2 23 -6 8 -11 9 -15 3z"/>
<path d="M11510 380 c0 -5 5 -10 11 -10 5 0 7 5 4 10 -3 6 -8 10 -11 10 -2 0
-4 -4 -4 -10z"/>
<path d="M6487 348 c-3 -18 -1 -37 4 -42 5 -6 9 7 9 32 0 50 -6 54 -13 10z"/>
<path d="M8167 348 c-3 -18 -1 -37 4 -42 5 -6 9 7 9 32 0 50 -6 54 -13 10z"/>
<path d="M3985 360 c-3 -5 -1 -10 4 -10 6 0 11 5 11 10 0 6 -2 10 -4 10 -3 0
-8 -4 -11 -10z"/>
<path d="M4502 330 c2 -77 33 -107 56 -55 6 14 8 25 3 25 -12 0 -32 -25 -26
-34 3 -3 -3 0 -12 8 -12 11 -13 18 -6 28 8 9 7 21 -2 43 l-14 30 1 -45z"/>
<path d="M6596 356 c3 -9 11 -16 16 -16 13 0 5 23 -10 28 -7 2 -10 -2 -6 -12z"/>
<path d="M7745 360 c-3 -5 -1 -10 4 -10 6 0 11 5 11 10 0 6 -2 10 -4 10 -3 0
-8 -4 -11 -10z"/>
<path d="M8276 356 c3 -9 11 -16 16 -16 13 0 5 23 -10 28 -7 2 -10 -2 -6 -12z"/>
<path d="M10883 344 c-20 -51 -25 -86 -12 -78 7 4 10 2 7 -6 -5 -17 -58 -23
-58 -7 0 9 -2 9 -8 0 -4 -6 -19 -10 -34 -10 -14 1 -24 5 -21 10 2 4 -7 7 -21
7 -13 0 -27 6 -29 13 -4 9 -6 9 -6 0 -2 -22 93 -60 105 -42 3 5 11 6 17 2 7
-4 21 -6 32 -4 21 3 65 31 50 31 -6 0 -4 4 3 8 21 14 24 58 4 82 l-18 23 -11
-29z m26 -46 c-15 -27 -30 -21 -25 10 2 15 5 31 5 36 1 6 7 1 15 -9 10 -14 11
-25 5 -37z"/>
<path d="M10893 315 c0 -8 4 -12 9 -9 5 3 6 10 3 15 -9 13 -12 11 -12 -6z"/>
<path d="M4546 343 c-4 -9 -2 -21 4 -27 7 -7 10 -6 10 3 0 7 4 10 9 6 6 -3 15
5 21 17 11 22 10 22 -4 4 -14 -18 -21 -15 -17 7 2 14 -17 7 -23 -10z"/>
<path d="M5943 265 c0 -27 2 -38 4 -22 2 15 2 37 0 50 -2 12 -4 0 -4 -28z"/>
<path d="M9360 260 c0 -22 5 -40 10 -40 6 0 10 18 10 40 0 22 -4 40 -10 40 -5
0 -10 -18 -10 -40z"/>
<path d="M10210 281 c-8 -15 -8 -27 0 -41 11 -21 30 -27 30 -10 0 5 8 6 17 3
16 -6 9 8 -33 65 -1 2 -7 -6 -14 -17z"/>
<path d="M10724 285 c11 -8 24 -15 30 -15 5 0 1 7 -10 15 -10 8 -23 14 -29 14
-5 0 -1 -6 9 -14z"/>
<path d="M6817 248 c-8 -29 -2 -34 20 -17 11 9 14 10 9 2 -4 -7 -2 -13 3 -13
6 0 11 4 11 9 0 5 3 16 6 25 3 9 1 16 -6 16 -6 0 -8 -6 -4 -12 6 -10 4 -10 -7
0 -19 17 -26 15 -32 -10z"/>
<path d="M8497 248 c-8 -29 -2 -34 20 -17 11 9 14 10 9 2 -4 -7 -2 -13 3 -13
6 0 11 4 11 9 0 5 3 16 6 25 3 9 1 16 -6 16 -6 0 -8 -6 -4 -12 6 -10 4 -10 -7
0 -19 17 -26 15 -32 -10z"/>
<path d="M10775 260 c4 -6 11 -8 16 -5 14 9 11 15 -7 15 -8 0 -12 -5 -9 -10z"/>
<path d="M11297 248 c-8 -29 -2 -34 20 -17 11 9 14 10 9 2 -4 -7 -2 -13 3 -13
6 0 11 4 11 9 0 5 3 16 6 25 3 9 1 16 -6 16 -6 0 -8 -6 -4 -12 6 -10 4 -10 -7
0 -19 17 -26 15 -32 -10z"/>
<path d="M3750 246 c0 -2 7 -7 16 -10 8 -3 12 -2 9 4 -6 10 -25 14 -25 6z"/>
<path d="M9787 236 c-5 -11 0 -13 25 -5 43 12 47 19 11 19 -17 0 -33 -6 -36
-14z"/>
</g>
</svg>
