<?xml version="1.0" standalone="no"?>
<!DOCTYPE svg PUBLIC "-//W3C//DTD SVG 20010904//EN"
 "http://www.w3.org/TR/2001/REC-SVG-20010904/DTD/svg10.dtd">
<svg version="1.0" xmlns="http://www.w3.org/2000/svg"
 width="1943.000000pt" height="574.000000pt" viewBox="0 0 1943.000000 574.000000"
 preserveAspectRatio="xMidYMid meet">

<g transform="translate(0.000000,574.000000) scale(0.100000,-0.100000)"
fill="#000000" stroke="none">
<path d="M4520 5073 c-204 -222 -406 -539 -525 -826 l-36 -88 35 -62 c63 -112
59 -111 90 -18 108 336 308 556 602 661 l61 22 -37 96 c-20 53 -52 141 -70
195 -19 53 -38 97 -41 97 -4 0 -40 -35 -79 -77z"/>
<path d="M5062 4913 c-269 -688 -455 -1403 -529 -2038 -25 -215 -25 -722 0
-890 100 -670 374 -1102 855 -1348 84 -43 323 -137 349 -137 3 0 -23 21 -57
47 -112 84 -191 213 -232 381 -30 122 -30 340 0 502 83 445 326 971 738 1597
l113 172 -10 63 c-53 340 -281 786 -647 1268 -165 216 -378 455 -473 531 l-37
29 -70 -177z"/>
<path d="M9760 3544 c0 -286 -1 -305 -17 -300 -145 45 -365 55 -483 22 -196
-54 -328 -191 -390 -406 -31 -108 -39 -362 -15 -481 38 -189 132 -336 265
-416 96 -57 273 -72 391 -33 67 23 177 90 218 134 14 14 30 26 37 26 6 0 20
-34 31 -77 l19 -78 82 -3 82 -3 0 961 0 960 -110 0 -110 0 0 -306z m-180 -428
c36 -8 91 -24 123 -36 l57 -21 0 -394 0 -393 -64 -60 c-36 -33 -95 -75 -132
-93 -56 -28 -80 -34 -153 -37 -74 -4 -93 -1 -133 18 -94 44 -171 160 -204 308
-13 57 -15 106 -11 216 7 204 46 316 141 404 98 91 225 120 376 88z"/>
<path d="M6720 2865 l0 -935 115 0 115 0 0 935 0 935 -115 0 -115 0 0 -935z"/>
<path d="M11997 3478 c-9 -57 -19 -127 -23 -155 l-7 -53 -108 0 -109 0 0 -80
0 -79 108 -3 107 -3 5 -490 5 -490 24 -53 c31 -69 98 -128 168 -148 76 -22
222 -20 325 5 72 17 158 46 158 54 0 11 -29 149 -32 152 -1 2 -41 -7 -87 -21
-108 -31 -229 -33 -275 -5 -17 11 -40 35 -51 53 -19 32 -20 53 -23 491 l-3
457 199 0 199 0 9 80 10 80 -208 0 -208 0 0 155 0 155 -84 0 -83 0 -16 -102z"/>
<path d="M7970 3283 c-94 -16 -190 -62 -288 -137 -47 -36 -74 -52 -77 -44 -5
13 -35 155 -35 164 0 2 -38 4 -85 4 l-85 0 0 -670 0 -670 105 0 105 0 0 489 0
489 60 55 c186 168 418 194 529 60 64 -77 65 -88 69 -615 l3 -478 105 0 104 0
0 488 c0 394 -3 499 -15 550 -31 129 -99 223 -198 272 -89 43 -199 59 -297 43z"/>
<path d="M10831 3275 c-170 -32 -305 -134 -380 -287 -50 -102 -69 -172 -82
-307 -17 -181 16 -366 87 -488 15 -27 55 -76 88 -111 72 -76 183 -134 296
-158 96 -20 300 -19 405 1 100 19 206 55 213 73 5 13 -13 140 -21 148 -2 2
-30 -5 -61 -16 -93 -32 -210 -50 -320 -50 -163 0 -260 35 -344 124 -85 90
-119 183 -124 336 l-3 85 459 3 459 2 -6 119 c-15 297 -114 448 -337 515 -77
23 -238 29 -329 11z m269 -161 c105 -33 177 -140 187 -278 l6 -76 -348 0 -348
0 6 44 c11 81 46 154 103 215 100 108 244 143 394 95z"/>
<path d="M13381 3275 c-104 -19 -210 -74 -281 -145 -137 -137 -208 -392 -180
-647 19 -182 62 -282 167 -393 78 -83 184 -141 303 -166 96 -20 300 -19 405 1
100 19 206 55 213 73 5 13 -13 140 -21 148 -2 2 -30 -5 -61 -16 -93 -32 -210
-50 -320 -50 -163 0 -260 35 -344 124 -85 90 -119 183 -124 336 l-3 85 459 3
459 2 -6 118 c-8 138 -26 221 -66 301 -55 107 -141 176 -271 215 -77 23 -238
29 -329 11z m269 -161 c105 -33 177 -140 187 -278 l6 -76 -348 0 -348 0 6 44
c11 81 46 154 103 215 100 108 244 143 394 95z"/>
<path d="M14822 3275 c-209 -38 -352 -171 -411 -384 -29 -103 -45 -269 -37
-376 25 -330 171 -530 431 -590 90 -21 277 -21 379 0 96 20 203 53 211 64 3 5
0 43 -7 85 -10 63 -14 76 -27 70 -53 -21 -219 -55 -293 -61 -244 -17 -393 84
-454 308 -13 46 -17 101 -17 199 0 148 16 235 58 325 32 67 118 147 182 170
109 38 286 26 437 -29 l63 -22 17 84 c10 46 14 88 9 92 -16 15 -149 51 -243
65 -114 18 -200 18 -298 0z"/>
<path d="M6237 1643 c-2 -5 -17 -46 -32 -93 -93 -284 -227 -457 -492 -637 -92
-63 -90 -56 -48 -148 26 -59 87 -130 144 -170 l42 -28 115 42 c318 116 589
287 832 525 l122 120 -37 39 c-43 44 -189 155 -276 210 -154 98 -351 172 -370
140z"/>
<path d="M11221 1593 c-13 -28 -13 -28 8 -9 22 20 27 36 13 36 -5 0 -14 -12
-21 -27z"/>
<path d="M14611 1598 c-17 -27 -9 -33 13 -9 10 10 13 21 9 24 -5 3 -15 -3 -22
-15z"/>
<path d="M7850 1590 c0 -5 5 -10 10 -10 6 0 10 5 10 10 0 6 -4 10 -10 10 -5 0
-10 -4 -10 -10z"/>
<path d="M9400 1500 c0 -60 4 -100 10 -100 6 0 10 40 10 100 0 60 -4 100 -10
100 -6 0 -10 -40 -10 -100z"/>
<path d="M10610 1500 c0 -60 4 -100 10 -100 6 0 10 40 10 100 0 60 -4 100 -10
100 -6 0 -10 -40 -10 -100z"/>
<path d="M10680 1500 c0 -60 4 -100 10 -100 6 0 10 40 10 100 0 60 -4 100 -10
100 -6 0 -10 -40 -10 -100z"/>
<path d="M11630 1590 c0 -5 7 -10 15 -10 8 0 15 5 15 10 0 6 -7 10 -15 10 -8
0 -15 -4 -15 -10z"/>
<path d="M12190 1570 c0 -27 -3 -30 -33 -30 -45 0 -67 -26 -67 -78 0 -33 5
-45 24 -57 19 -13 29 -14 45 -6 11 6 27 8 35 5 14 -5 16 7 16 95 0 61 -4 101
-10 101 -5 0 -10 -13 -10 -30z m-16 -46 c19 -7 22 -84 4 -102 -17 -17 -55 -15
-62 4 -12 32 -6 83 12 93 20 12 25 13 46 5z"/>
<path d="M12490 1500 c0 -60 4 -100 10 -100 6 0 10 40 10 100 0 60 -4 100 -10
100 -6 0 -10 -40 -10 -100z"/>
<path d="M13450 1590 c0 -5 7 -10 15 -10 8 0 15 5 15 10 0 6 -7 10 -15 10 -8
0 -15 -4 -15 -10z"/>
<path d="M13940 1570 c0 -26 -4 -30 -27 -30 -37 0 -49 -9 -63 -44 -8 -21 -8
-38 0 -62 13 -37 39 -50 70 -34 11 6 25 8 30 5 6 -4 10 31 10 94 0 61 -4 101
-10 101 -5 0 -10 -13 -10 -30z m-12 -49 c9 -5 12 -25 10 -57 -3 -45 -5 -49
-30 -52 -22 -3 -30 2 -38 23 -12 32 -4 72 19 85 20 12 23 12 39 1z"/>
<path d="M14720 1501 l0 -99 29 -7 c70 -15 117 63 75 123 -17 24 -53 29 -72
10 -9 -9 -12 -3 -12 30 0 23 -4 42 -10 42 -6 0 -10 -40 -10 -99z m88 7 c31
-31 5 -98 -38 -98 -29 0 -30 1 -30 48 0 27 3 52 7 55 11 11 48 8 61 -5z"/>
<path d="M14880 1500 c0 -60 4 -100 10 -100 6 0 10 40 10 100 0 60 -4 100 -10
100 -6 0 -10 -40 -10 -100z"/>
<path d="M14950 1590 c0 -5 7 -10 15 -10 8 0 15 5 15 10 0 6 -7 10 -15 10 -8
0 -15 -4 -15 -10z"/>
<path d="M7350 1495 c0 -57 4 -95 10 -95 6 0 10 38 10 95 0 57 -4 95 -10 95
-6 0 -10 -38 -10 -95z"/>
<path d="M9550 1495 l0 -95 56 0 c70 0 89 11 104 56 15 45 0 108 -30 124 -10
5 -44 10 -74 10 l-56 0 0 -95z m113 72 c38 -27 38 -114 0 -143 -10 -7 -35 -14
-55 -14 l-38 0 0 85 0 85 38 0 c21 0 46 -6 55 -13z"/>
<path d="M11023 1583 l37 -4 0 -90 c0 -53 4 -89 10 -89 6 0 10 36 10 89 l0 90
38 4 c20 2 -1 4 -48 4 -47 0 -68 -2 -47 -4z"/>
<path d="M12940 1495 c0 -57 4 -95 10 -95 6 0 10 20 10 45 l0 45 60 0 60 0 0
-45 c0 -25 5 -45 10 -45 6 0 10 38 10 95 0 57 -4 95 -10 95 -5 0 -10 -18 -10
-40 l0 -40 -60 0 -60 0 0 40 c0 22 -4 40 -10 40 -6 0 -10 -38 -10 -95z"/>
<path d="M14390 1495 c0 -53 4 -95 9 -95 6 0 11 17 13 37 3 35 6 38 42 44 42
7 56 21 56 60 0 37 -18 49 -72 49 l-48 0 0 -95z m88 73 c21 -21 14 -57 -12
-70 -39 -17 -56 -4 -56 42 0 37 2 40 28 40 15 0 33 -5 40 -12z"/>
<path d="M7740 1556 c0 -8 -6 -17 -12 -20 -10 -5 -10 -7 0 -12 7 -4 12 -27 12
-64 0 -50 3 -60 20 -65 11 -3 28 -2 37 4 16 9 14 10 -9 11 -27 0 -28 2 -28 55
0 48 2 55 20 55 11 0 20 5 20 10 0 6 -9 10 -20 10 -11 0 -20 7 -20 15 0 8 -4
15 -10 15 -5 0 -10 -6 -10 -14z"/>
<path d="M7930 1556 c0 -8 -6 -17 -12 -20 -10 -5 -10 -7 0 -12 7 -3 12 -26 12
-59 0 -60 16 -81 52 -69 l23 8 -25 6 c-22 5 -25 12 -28 58 -3 47 -1 52 17 52
12 0 21 5 21 10 0 6 -9 10 -20 10 -11 0 -20 7 -20 15 0 8 -4 15 -10 15 -5 0
-10 -6 -10 -14z"/>
<path d="M8220 1555 c0 -8 -7 -15 -15 -15 -8 0 -15 -4 -15 -10 0 -5 7 -10 15
-10 12 0 15 -13 15 -59 0 -51 3 -61 20 -66 11 -3 28 -2 37 4 16 9 14 10 -9 11
-27 0 -28 2 -28 55 0 48 2 55 20 55 11 0 20 5 20 10 0 6 -9 10 -20 10 -11 0
-20 7 -20 15 0 8 -4 15 -10 15 -5 0 -10 -7 -10 -15z"/>
<path d="M7430 1473 c0 -86 18 -98 22 -15 3 56 3 57 33 57 30 0 30 -1 33 -57
2 -32 7 -58 12 -58 14 0 12 114 -2 128 -16 16 -51 15 -66 0 -10 -10 -15 -10
-22 2 -7 10 -10 -8 -10 -57z"/>
<path d="M7603 1533 c-7 -2 -13 -16 -13 -29 0 -19 8 -29 35 -40 23 -9 35 -21
35 -34 0 -17 -7 -20 -42 -21 -42 -1 -42 -1 -15 -11 40 -14 77 3 77 37 0 14 -3
25 -7 25 -5 0 -23 9 -41 20 -28 17 -32 23 -21 36 8 10 21 13 42 8 20 -4 27 -3
23 5 -7 11 -50 14 -73 4z"/>
<path d="M7850 1470 c0 -40 4 -70 10 -70 6 0 10 30 10 70 0 40 -4 70 -10 70
-6 0 -10 -30 -10 -70z"/>
<path d="M8040 1481 c0 -68 19 -97 54 -86 12 4 29 7 39 8 15 1 17 11 15 72 -2
66 -2 67 -5 15 -5 -64 -17 -82 -52 -78 -24 3 -26 7 -29 66 -4 79 -22 82 -22 3z"/>
<path d="M8340 1520 c-23 -23 -27 -77 -6 -105 15 -21 79 -26 97 -8 6 6 13 29
16 51 4 32 1 44 -16 61 -26 26 -65 27 -91 1z m88 -43 c4 -36 -15 -67 -41 -67
-32 0 -47 18 -47 56 0 44 34 70 65 50 11 -7 21 -25 23 -39z"/>
<path d="M8570 1435 c0 -63 4 -105 10 -105 6 0 10 16 10 35 0 33 1 34 29 29
41 -8 71 23 71 74 0 54 -29 80 -71 65 -16 -6 -29 -7 -29 -2 0 5 -4 9 -10 9 -6
0 -10 -42 -10 -105z m100 37 c0 -45 -14 -62 -52 -62 -27 0 -28 2 -28 48 0 41
4 51 23 59 35 16 57 -1 57 -45z"/>
<path d="M8753 1533 c-25 -9 -13 -22 12 -13 32 12 55 3 55 -21 0 -13 -12 -21
-40 -29 -45 -12 -54 -22 -45 -50 8 -24 38 -34 63 -21 13 7 22 7 30 -1 9 -9 15
-9 24 0 9 9 9 12 0 12 -8 0 -12 18 -12 53 0 29 -5 58 -12 65 -12 12 -52 15
-75 5z m65 -90 c-2 -24 -8 -28 -33 -28 -41 0 -46 29 -8 43 42 15 45 14 41 -15z"/>
<path d="M8900 1471 c0 -82 17 -97 22 -18 2 43 7 54 26 62 12 5 22 13 22 17 0
12 -28 10 -35 -2 -5 -8 -11 -7 -21 1 -12 10 -14 0 -14 -60z"/>
<path d="M9023 1533 c-25 -9 -13 -22 12 -13 32 12 55 3 55 -21 0 -13 -12 -21
-40 -29 -45 -12 -54 -22 -45 -50 8 -24 38 -34 63 -21 13 7 22 7 30 -1 9 -9 15
-9 24 0 9 9 9 12 0 12 -8 0 -12 18 -12 53 0 29 -5 58 -12 65 -12 12 -52 15
-75 5z m67 -88 c0 -18 -7 -26 -26 -31 -29 -7 -49 7 -41 30 5 12 15 17 60 25 4
0 7 -10 7 -24z"/>
<path d="M9260 1520 c-24 -24 -27 -82 -4 -104 21 -22 59 -30 81 -17 15 9 12
10 -17 11 -40 0 -60 14 -60 42 0 15 9 18 50 18 43 0 50 3 50 19 0 48 -64 67
-100 31z m68 -2 c24 -24 13 -38 -28 -38 -43 0 -49 9 -24 34 19 19 36 20 52 4z"/>
<path d="M9780 1520 c-22 -22 -26 -69 -10 -100 12 -23 63 -35 87 -21 15 9 12
10 -17 11 -40 0 -60 14 -60 42 0 15 9 18 50 18 54 0 61 10 34 48 -19 28 -57
29 -84 2z m68 -2 c24 -24 13 -38 -28 -38 -43 0 -49 9 -24 34 19 19 36 20 52 4z"/>
<path d="M9932 1528 c-23 -23 -13 -47 26 -65 50 -24 49 -47 -3 -53 -30 -4 -35
-7 -22 -13 29 -11 46 -8 67 13 25 25 16 47 -26 65 -19 8 -34 20 -34 28 0 19
27 29 53 21 13 -4 17 -2 13 5 -9 15 -59 14 -74 -1z"/>
<path d="M10070 1529 c-12 -8 -8 -9 15 -5 35 5 48 -1 58 -26 5 -14 0 -19 -21
-24 -53 -12 -60 -15 -66 -29 -3 -8 3 -24 13 -37 17 -20 21 -21 47 -9 20 9 30
9 32 2 5 -14 32 -14 32 -1 0 6 -4 10 -10 10 -5 0 -10 24 -10 53 0 29 -5 58
-12 65 -15 15 -58 15 -78 1z m80 -77 c0 -24 -19 -42 -46 -42 -44 0 -36 41 11
53 34 8 35 8 35 -11z"/>
<path d="M10220 1470 c0 -81 18 -95 22 -17 2 43 7 54 26 62 12 5 22 13 22 17
0 11 -8 10 -31 -2 -13 -7 -19 -7 -19 0 0 5 -4 10 -10 10 -6 0 -10 -30 -10 -70z"/>
<path d="M10330 1470 c0 -81 18 -95 22 -18 3 47 6 54 33 67 16 8 24 16 18 18
-7 3 -21 -1 -32 -7 -14 -7 -21 -7 -21 0 0 5 -4 10 -10 10 -6 0 -10 -30 -10
-70z"/>
<path d="M10463 1534 c-7 -3 -17 -21 -23 -39 -23 -69 39 -128 94 -91 21 13 26
24 26 60 0 61 -42 92 -97 70z m58 -14 c14 -8 19 -21 19 -48 0 -44 -14 -62 -47
-62 -43 0 -54 87 -14 110 20 12 19 12 42 0z"/>
<path d="M10767 1522 c-10 -11 -17 -35 -17 -60 0 -34 5 -45 26 -58 55 -37 117
22 94 90 -16 49 -71 64 -103 28z m73 -12 c22 -22 24 -37 10 -74 -10 -28 -47
-35 -68 -14 -19 19 -15 85 6 97 24 15 29 14 52 -9z"/>
<path d="M11186 1524 c-58 -57 -4 -153 71 -126 l28 10 -37 1 c-38 1 -68 22
-68 47 0 10 13 14 50 14 43 0 50 3 50 19 0 45 -62 68 -94 35z m68 -16 c14 -23
5 -30 -38 -26 -36 3 -36 3 -20 26 18 26 41 26 58 0z"/>
<path d="M11340 1520 c-22 -22 -25 -54 -11 -93 11 -29 60 -44 88 -28 15 9 11
10 -20 11 -30 0 -40 5 -49 25 -18 41 0 79 40 83 40 4 42 22 2 22 -17 0 -39 -9
-50 -20z"/>
<path d="M11470 1470 c0 -40 4 -70 10 -70 6 0 10 22 10 48 0 53 12 72 46 72
26 0 34 -17 34 -76 0 -24 5 -44 10 -44 11 0 13 71 4 108 -8 27 -44 38 -73 22
-14 -7 -21 -7 -21 0 0 5 -4 10 -10 10 -6 0 -10 -30 -10 -70z"/>
<path d="M11630 1470 c0 -40 4 -70 10 -70 6 0 10 30 10 70 0 40 -4 70 -10 70
-6 0 -10 -30 -10 -70z"/>
<path d="M11720 1520 c-21 -21 -26 -69 -10 -100 12 -23 51 -33 82 -21 21 9 20
10 -12 10 -44 1 -60 16 -60 56 0 38 16 55 52 55 15 0 28 5 28 10 0 18 -59 11
-80 -10z"/>
<path d="M11860 1520 c-23 -23 -27 -77 -6 -105 9 -13 26 -19 51 -19 44 0 65
22 65 71 0 40 -30 73 -65 73 -14 0 -34 -9 -45 -20z m88 -43 c4 -36 -15 -67
-41 -67 -32 0 -47 18 -47 56 0 44 34 70 65 50 11 -7 21 -25 23 -39z"/>
<path d="M12276 1524 c-58 -57 -4 -153 71 -126 l28 10 -37 1 c-38 1 -68 22
-68 47 0 10 13 14 50 14 46 0 50 2 50 25 0 41 -63 61 -94 29z m58 0 c9 -3 16
-15 16 -25 0 -16 -7 -19 -41 -19 -40 0 -42 4 -16 38 11 14 18 15 41 6z"/>
<path d="M12580 1529 c-11 -8 -8 -9 13 -4 30 6 57 -8 57 -30 0 -7 -19 -19 -42
-27 -31 -9 -44 -19 -46 -35 -4 -29 28 -46 61 -34 16 6 28 6 36 -2 8 -8 14 -8
23 1 9 9 9 12 0 12 -8 0 -12 18 -12 49 0 32 -6 55 -16 65 -18 18 -52 21 -74 5z
m70 -84 c0 -18 -7 -26 -26 -31 -29 -7 -49 7 -41 30 5 12 15 17 60 25 4 0 7
-10 7 -24z"/>
<path d="M12736 1527 c-27 -20 -12 -53 30 -67 48 -16 42 -43 -11 -50 -36 -5
-37 -6 -15 -12 35 -10 68 0 75 23 8 25 0 37 -41 54 -19 8 -34 20 -34 28 0 19
27 29 53 21 13 -4 17 -2 13 5 -10 15 -48 14 -70 -2z"/>
<path d="M13170 1529 c-11 -8 -8 -9 13 -4 30 6 57 -8 57 -30 0 -7 -19 -19 -42
-27 -31 -9 -44 -19 -46 -35 -4 -29 30 -48 59 -33 15 9 24 8 35 -1 11 -9 18 -9
26 -1 9 9 9 12 0 12 -8 0 -12 18 -12 49 0 32 -6 55 -16 65 -18 18 -52 21 -74
5z m70 -78 c0 -24 -24 -44 -47 -39 -27 5 -22 41 7 49 38 11 40 10 40 -10z"/>
<path d="M13327 1522 c-10 -11 -17 -35 -17 -60 0 -51 33 -79 77 -66 l28 8 -30
4 c-40 5 -55 19 -55 52 0 48 9 60 47 60 20 0 32 4 28 10 -10 17 -61 11 -78 -8z"/>
<path d="M13460 1470 c0 -40 4 -70 10 -70 6 0 10 30 10 70 0 40 -4 70 -10 70
-6 0 -10 -30 -10 -70z"/>
<path d="M13546 1524 c-58 -57 -4 -153 71 -126 l28 10 -37 1 c-38 1 -68 22
-68 47 0 10 13 14 50 14 46 0 50 2 50 25 0 41 -63 61 -94 29z m58 0 c9 -3 16
-15 16 -25 0 -16 -7 -19 -41 -19 -40 0 -42 4 -16 38 11 14 18 15 41 6z"/>
<path d="M13690 1473 c0 -86 18 -98 22 -15 3 56 3 57 33 57 30 0 30 -1 33 -57
2 -32 7 -58 12 -58 14 0 12 114 -2 128 -16 16 -51 15 -66 0 -10 -10 -15 -10
-22 2 -7 10 -10 -8 -10 -57z"/>
<path d="M14030 1529 c-11 -8 -8 -9 13 -4 30 6 57 -8 57 -30 0 -7 -19 -19 -42
-27 -31 -9 -44 -19 -46 -35 -4 -29 32 -49 63 -35 16 7 26 7 34 -1 8 -8 14 -8
23 1 9 9 9 12 0 12 -8 0 -12 17 -12 46 0 25 -5 54 -10 65 -12 21 -55 26 -80 8z
m70 -84 c0 -18 -7 -26 -26 -31 -29 -7 -49 7 -41 30 5 12 15 17 60 25 4 0 7
-10 7 -24z"/>
<path d="M14186 1527 c-27 -20 -13 -51 30 -66 48 -17 43 -44 -11 -51 -38 -5
-38 -6 -13 -13 15 -4 38 -3 53 3 39 15 30 50 -17 73 -21 9 -38 24 -38 31 0 18
31 29 54 20 9 -3 16 -1 16 5 0 15 -52 14 -74 -2z"/>
<path d="M14550 1482 c0 -46 4 -63 20 -77 17 -15 24 -16 45 -7 14 6 32 9 40 6
12 -5 15 6 15 65 0 41 -4 71 -10 71 -5 0 -10 -24 -10 -53 0 -57 -12 -77 -46
-77 -27 0 -34 17 -34 81 0 27 -4 49 -10 49 -6 0 -10 -26 -10 -58z"/>
<path d="M14950 1470 c0 -40 4 -70 10 -70 6 0 10 30 10 70 0 40 -4 70 -10 70
-6 0 -10 -30 -10 -70z"/>
<path d="M15040 1520 c-21 -21 -26 -69 -10 -100 12 -23 51 -33 82 -21 21 9 20
10 -12 10 -44 1 -60 16 -60 56 0 38 16 55 52 55 15 0 28 5 28 10 0 18 -59 11
-80 -10z"/>
<path d="M15183 1533 c-25 -9 -13 -22 12 -13 42 16 54 4 52 -53 -2 -46 -5 -52
-26 -55 -24 -4 -44 15 -34 31 3 4 15 12 27 17 l21 9 -22 0 c-21 1 -53 -22 -53
-39 0 -12 29 -40 41 -40 6 0 20 5 32 11 16 9 22 9 25 0 5 -14 32 -15 32 -1 0
6 -4 10 -10 10 -5 0 -10 24 -10 53 0 29 -5 58 -12 65 -12 12 -52 15 -75 5z"/>
<path d="M15343 1533 c-7 -2 -13 -16 -13 -29 0 -19 8 -28 33 -39 40 -17 47
-23 40 -41 -3 -9 -21 -14 -47 -15 -40 -1 -40 -1 -13 -11 71 -26 108 43 41 75
-47 23 -44 53 5 49 20 -1 30 2 26 8 -6 10 -50 12 -72 3z"/>
</g>
</svg>
