<?xml version="1.0" standalone="no"?>
<!DOCTYPE svg PUBLIC "-//W3C//DTD SVG 20010904//EN"
 "http://www.w3.org/TR/2001/REC-SVG-20010904/DTD/svg10.dtd">
<svg version="1.0" xmlns="http://www.w3.org/2000/svg"
 width="425.000000pt" height="199.000000pt" viewBox="0 0 425.000000 199.000000"
 preserveAspectRatio="xMidYMid meet">

<g transform="translate(0.000000,199.000000) scale(0.100000,-0.100000)"
fill="#000000" stroke="none">
<path d="M800 1972 c0 -6 5 -14 10 -17 6 -4 8 -10 5 -15 -3 -5 -1 -11 5 -15 5
-3 10 -13 10 -22 0 -9 7 -25 16 -34 16 -17 15 -21 -10 -54 -15 -19 -36 -35
-46 -35 -16 0 -18 7 -17 43 2 36 -1 42 -18 42 -16 0 -19 -6 -17 -32 3 -26 0
-32 -19 -35 -18 -2 -28 -17 -46 -63 -13 -32 -23 -76 -23 -97 0 -39 8 -44 62
-40 16 2 34 -30 25 -45 -13 -22 14 -52 50 -59 21 -3 48 -13 61 -21 20 -12 23
-20 17 -52 -6 -34 -3 -41 25 -65 17 -14 35 -26 40 -26 5 0 12 -15 15 -33 5
-24 1 -43 -15 -69 -17 -30 -28 -37 -63 -41 -124 -14 -167 -43 -167 -115 0 -38
-25 -92 -43 -92 -6 0 -2 -8 11 -18 15 -12 25 -33 29 -60 7 -50 -9 -56 -27 -12
-7 17 -31 44 -54 59 -23 16 -50 38 -60 50 -11 11 -28 21 -38 21 -10 0 -29 11
-42 25 -30 32 -56 32 -91 -1 -22 -21 -35 -25 -61 -21 -23 4 -37 0 -47 -11 -21
-23 -67 -123 -67 -144 0 -24 -36 -45 -115 -67 -37 -10 -72 -24 -77 -29 -8 -8
-3 -28 15 -70 15 -33 27 -66 27 -73 0 -35 87 -165 170 -254 49 -52 90 -116 90
-140 0 -21 50 -55 81 -55 16 0 29 -5 29 -12 0 -7 19 -21 41 -32 38 -17 41 -17
60 0 23 21 100 49 161 59 54 9 66 19 74 61 7 39 23 42 98 20 29 -9 68 -12 101
-9 49 5 56 3 80 -23 26 -27 27 -33 23 -104 -7 -115 -7 -114 67 -107 48 5 67 2
85 -10 22 -16 24 -15 47 13 12 16 23 37 23 47 0 20 109 77 147 77 29 0 53 37
60 91 5 38 4 41 -14 35 -30 -10 -50 2 -50 30 0 14 -9 31 -19 38 -20 15 -24 80
-5 99 35 35 -9 77 -80 77 -42 0 -47 2 -52 26 -7 41 3 64 28 64 13 0 25 6 27
12 4 10 10 10 32 0 22 -10 32 -9 56 3 17 9 30 19 30 24 0 18 132 71 188 76
102 8 131 16 125 32 -3 8 5 37 18 64 17 38 20 52 11 58 -7 4 -21 23 -32 43
l-19 35 31 33 c16 18 41 52 55 74 15 23 34 47 45 54 10 7 18 21 18 31 0 10 11
26 25 35 14 9 40 33 59 53 33 37 33 37 14 57 -16 17 -18 28 -12 61 4 22 8 56
7 75 0 19 4 38 9 41 13 9 -2 59 -18 59 -7 0 -30 11 -50 25 -46 31 -64 32 -64
2 0 -17 -10 -28 -37 -41 -21 -10 -53 -36 -71 -57 -64 -75 -138 -88 -187 -34
-39 41 -145 28 -145 -19 0 -19 43 -66 62 -66 12 0 10 -98 -3 -106 -6 -3 -15
-2 -21 4 -12 12 -73 -20 -82 -43 -4 -10 -20 -15 -51 -15 -47 0 -51 -4 -46 -57
2 -25 -27 -38 -64 -29 -13 3 -27 2 -30 -4 -11 -18 -62 -11 -77 11 -10 15 -24
21 -51 21 -28 0 -42 6 -57 25 -10 13 -17 30 -14 37 3 8 -4 16 -18 19 -20 6
-21 8 -8 21 8 8 30 17 48 19 40 7 49 14 35 28 -8 8 -13 7 -18 -1 -10 -17 -55
28 -55 56 0 24 21 46 41 42 7 -2 19 14 27 35 13 34 13 39 -1 55 -19 20 -6 42
23 42 9 0 35 18 58 41 31 29 48 38 62 34 11 -3 31 1 46 11 25 17 25 18 8 31
-18 13 -18 15 -1 24 12 7 15 17 11 33 -3 13 -1 27 5 30 21 13 11 26 -19 26
-30 0 -42 21 -20 35 18 11 0 25 -35 25 -38 0 -56 -27 -31 -46 23 -16 20 -29
-9 -42 -14 -7 -31 -23 -37 -38 -10 -22 -17 -25 -45 -21 -18 3 -35 1 -38 -4 -8
-13 -42 -11 -51 2 -3 6 2 23 13 37 14 18 22 52 27 104 7 80 7 81 -36 92 -25 6
-28 3 -39 -36 -6 -24 -15 -48 -19 -53 -5 -6 -8 -25 -8 -43 1 -40 -18 -65 -32
-42 -21 33 2 162 37 204 22 26 23 31 9 44 -18 18 -116 30 -116 14z"/>
<path d="M1964 1215 c-21 -19 -42 -35 -46 -35 -3 0 -11 -13 -17 -30 -5 -16
-15 -30 -20 -30 -6 0 -23 -19 -37 -42 -15 -24 -40 -58 -57 -75 l-30 -32 19
-36 c10 -19 22 -35 26 -35 14 0 9 -40 -8 -73 -10 -17 -17 -44 -16 -58 1 -30 4
-28 -136 -49 -71 -10 -182 -54 -182 -71 0 -5 -16 -17 -36 -26 -28 -14 -39 -15
-54 -5 -12 7 -21 8 -25 2 -3 -6 -17 -10 -31 -10 -21 0 -24 -5 -24 -34 0 -32 1
-33 38 -33 50 1 94 -22 106 -56 8 -22 6 -30 -8 -40 -12 -9 -17 -23 -14 -47 l3
-35 1368 -3 1367 -2 0 -145 0 -145 50 0 50 0 -2 588 -3 587 -1121 3 -1120 2
-40 -35z m249 -48 c42 -20 47 -34 15 -47 -18 -7 -19 -9 -6 -9 22 -1 19 -26 -5
-61 -13 -18 -14 -26 -4 -32 9 -6 9 -8 0 -8 -7 0 -17 8 -22 18 -8 13 -10 14
-11 2 0 -13 -1 -13 -10 0 -9 13 -10 13 -10 0 -1 -21 -50 40 -50 63 0 9 8 17
18 18 13 0 12 2 -5 9 -32 13 -29 30 7 43 17 6 30 15 30 20 0 5 3 7 8 5 4 -2
24 -12 45 -21z m867 -23 c0 -8 -6 -14 -12 -15 -10 0 -10 -2 0 -6 17 -7 15 -28
-3 -43 -9 -7 -13 -20 -10 -28 4 -11 2 -12 -7 -4 -22 17 -24 18 -43 2 -12 -10
-16 -10 -11 -2 4 7 3 18 -2 25 -6 7 -12 30 -14 52 -3 35 0 40 20 43 12 2 22 7
22 12 0 5 14 2 30 -6 17 -9 30 -22 30 -30z m-798 -3 c2 -17 1 -28 -4 -25 -8 5
-12 54 -4 54 2 0 6 -13 8 -29z m31 -22 c-6 -6 -7 3 -4 23 4 28 6 29 9 9 2 -13
0 -27 -5 -32z m944 34 c3 -7 -8 -11 -29 -10 -30 2 -33 0 -33 -28 0 -27 3 -30
33 -30 36 0 44 -20 11 -28 -61 -16 -104 49 -62 95 19 21 74 22 80 1z m43 -5
c0 -47 12 -69 34 -66 17 2 22 11 24 46 4 56 22 54 22 -3 0 -36 -4 -47 -25 -61
-23 -15 -27 -15 -50 0 -21 14 -25 25 -25 61 0 25 5 45 10 45 6 0 10 -10 10
-22z m198 5 c2 -9 -5 -11 -25 -7 -36 7 -58 -15 -48 -47 6 -18 12 -20 41 -16
40 7 45 -8 9 -25 -54 -25 -102 54 -59 97 19 18 75 17 82 -2z m112 7 c0 -5 -16
-10 -36 -10 -42 0 -43 -23 -1 -28 37 -4 34 -22 -3 -22 -16 0 -30 -4 -30 -10 0
-5 13 -10 29 -10 17 0 33 -4 36 -10 4 -6 -12 -10 -39 -10 l-46 0 0 55 0 55 45
0 c25 0 45 -4 45 -10z m102 -43 c21 -47 19 -72 -4 -49 -7 7 -21 12 -33 12 -12
0 -26 -5 -33 -12 -22 -22 -22 -1 0 50 13 30 29 51 36 49 8 -1 23 -23 34 -50z
m-1115 6 c-3 -10 -5 -4 -5 12 0 17 2 24 5 18 2 -7 2 -21 0 -30z m90 0 c-3 -10
-5 -4 -5 12 0 17 2 24 5 18 2 -7 2 -21 0 -30z m-331 12 c17 -16 14 -18 -10 -9
-9 3 -16 10 -16 15 0 13 9 11 26 -6z m31 -17 c-3 -7 -5 -2 -5 12 0 14 2 19 5
13 2 -7 2 -19 0 -25z m33 -3 c0 -5 -5 -3 -10 5 -5 8 -10 20 -10 25 0 6 5 3 10
-5 5 -8 10 -19 10 -25z m40 15 c0 -11 -4 -20 -8 -20 -4 0 -8 9 -8 20 0 11 4
20 8 20 4 0 8 -9 8 -20z m56 2 c0 -10 -8 -19 -18 -19 -12 -1 -18 5 -18 18 0
12 7 19 18 19 10 0 18 -7 18 -18z m51 1 c-4 9 -2 17 3 17 6 0 10 -9 10 -20 0
-11 -3 -20 -6 -20 -14 0 -44 22 -44 32 0 6 10 3 22 -8 19 -17 21 -17 15 -1z
m73 0 c0 9 5 17 10 17 6 0 10 -2 10 -4 0 -2 2 -10 5 -18 4 -9 -4 -13 -24 -13
-23 -1 -29 3 -28 18 1 17 2 17 14 1 12 -16 13 -16 13 -1z m80 3 c0 -8 -4 -17
-8 -20 -4 -2 -8 4 -8 15 0 10 4 19 8 19 4 0 8 -6 8 -14z m33 -6 c3 -11 1 -20
-4 -20 -5 0 -9 9 -9 20 0 11 2 20 4 20 2 0 6 -9 9 -20z m47 -4 c0 -16 -2 -18
-9 -7 -7 11 -9 11 -14 0 -3 -9 -6 -6 -6 7 -1 12 5 21 14 21 9 0 15 -9 15 -21z
m100 -32 c0 -8 -4 -12 -10 -9 -5 3 -10 10 -10 16 0 5 5 9 10 9 6 0 10 -7 10
-16z m-614 -33 c-1 -31 -16 -33 -16 -2 0 15 8 31 15 31 1 0 2 -13 1 -29z m61
-18 c-3 -10 -5 -4 -5 12 0 17 2 24 5 18 2 -7 2 -21 0 -30z m113 12 c0 -14 -4
-25 -10 -25 -5 0 -10 11 -10 25 0 14 5 25 10 25 6 0 10 -11 10 -25z m30 0 c0
-25 -15 -24 -16 1 -1 13 2 21 7 18 5 -3 9 -11 9 -19z m67 -12 c-3 -10 -5 -4
-5 12 0 17 2 24 5 18 2 -7 2 -21 0 -30z m76 -13 c-3 -3 -8 1 -10 8 -3 6 -8 10
-13 7 -4 -3 -6 5 -3 16 6 21 6 21 19 -2 7 -13 10 -26 7 -29z m29 8 c-6 -6 -7
0 -4 19 5 21 7 23 10 9 2 -10 0 -22 -6 -28z m103 15 c1 -15 -4 -21 -17 -20
-12 1 -18 9 -18 25 0 31 33 26 35 -5z m-341 1 c8 -21 9 -20 -13 -20 -12 0 -17
6 -13 18 5 22 18 23 26 2z m109 -5 c4 -15 2 -18 -7 -10 -7 6 -16 8 -20 4 -4
-4 -4 0 0 10 8 23 20 21 27 -4z m181 5 c9 -24 7 -28 -9 -14 -12 10 -15 10 -15
0 0 -8 -2 -11 -5 -8 -7 7 5 38 15 38 4 0 11 -7 14 -16z m100 0 c8 -21 9 -20
-13 -20 -12 0 -17 6 -13 18 5 22 18 23 26 2z m-484 -9 c0 -8 -4 -15 -10 -15
-5 0 -10 7 -10 15 0 8 5 15 10 15 6 0 10 -7 10 -15z m980 -25 c0 -5 -4 -10
-10 -10 -5 0 -10 5 -10 10 0 6 5 10 10 10 6 0 10 -4 10 -10z m100 1 c0 -12
-28 -18 -57 -13 -38 7 -26 22 17 22 22 0 40 -4 40 -9z m90 0 c0 -5 -9 -11 -20
-14 -23 -6 -62 2 -56 12 6 10 76 12 76 2z m80 0 c0 -5 -16 -11 -35 -13 -32 -4
-43 1 -30 13 8 9 65 9 65 0z m40 -1 c0 -5 -4 -10 -10 -10 -5 0 -10 5 -10 10 0
6 5 10 10 10 6 0 10 -4 10 -10z m120 0 c0 -5 -25 -10 -55 -10 -30 0 -55 5 -55
10 0 6 25 10 55 10 30 0 55 -4 55 -10z m-800 -220 c0 -93 -1 -100 -20 -100
-19 0 -20 7 -20 93 0 95 3 107 27 107 10 0 13 -23 13 -100z m518 78 c2 -11 -3
-18 -12 -18 -9 0 -16 -4 -16 -10 0 -5 7 -10 16 -10 9 0 14 -7 12 -17 -2 -10
-10 -18 -18 -18 -11 0 -16 -14 -18 -52 -3 -45 -6 -53 -23 -53 -16 0 -19 7 -19
55 0 30 -4 55 -10 55 -5 0 -10 7 -10 15 0 8 5 15 10 15 6 0 10 6 10 14 0 40
71 61 78 24z m-592 -13 c33 -45 7 -99 -54 -111 -21 -4 -32 -13 -34 -28 -2 -13
-11 -22 -25 -24 -23 -3 -23 -1 -23 94 l0 96 61 -4 c45 -3 65 -10 75 -23z m304
-5 c0 -13 7 -20 20 -20 26 0 26 -26 -1 -33 -16 -4 -20 -12 -17 -39 2 -20 8
-33 17 -33 23 0 24 -23 2 -35 -36 -19 -61 3 -61 53 0 24 -5 48 -11 54 -8 8 -8
19 2 42 16 35 49 43 49 11z m-95 -35 c20 -19 25 -34 25 -73 l0 -49 -47 -6
c-54 -6 -79 4 -88 34 -9 28 21 59 57 59 18 0 27 4 23 11 -4 5 -19 7 -35 4 -36
-8 -51 21 -17 35 37 15 57 11 82 -15z m263 -2 c6 -9 12 -40 12 -69 l0 -52 -42
-4 c-62 -7 -88 5 -88 40 0 36 16 52 54 52 16 0 26 3 22 8 -4 4 -20 7 -34 7
-17 0 -28 6 -30 17 -6 31 82 32 106 1z m253 -2 c16 -16 29 -39 29 -51 0 -25
-51 -80 -75 -80 -9 0 -26 5 -38 12 -62 32 -63 101 -2 136 32 18 55 14 86 -17z
m137 3 c2 -12 -6 -23 -20 -29 -18 -8 -24 -19 -26 -52 -3 -35 -7 -43 -23 -43
-17 0 -19 7 -19 71 0 71 0 71 25 67 14 -3 28 -1 31 4 9 14 29 3 32 -18z m132
14 c8 0 25 3 37 7 37 12 63 -25 63 -90 0 -48 -2 -55 -20 -55 -17 0 -20 7 -20
43 0 24 -5 48 -12 55 -20 20 -38 -6 -38 -54 0 -37 -3 -44 -20 -44 -17 0 -20 7
-20 49 0 34 -5 51 -15 55 -19 7 -35 -23 -35 -68 0 -29 -4 -36 -20 -36 -18 0
-20 7 -20 69 l0 70 33 4 c17 2 41 2 52 0 11 -3 27 -5 35 -5z m238 -15 c6 -9
12 -40 12 -69 l0 -51 -47 -6 c-60 -6 -83 5 -83 41 0 36 17 52 53 52 17 0 26 4
22 11 -4 6 -19 7 -36 4 -24 -6 -29 -3 -29 14 0 34 82 37 108 4z m-1465 -220
c4 -3 -1 -11 -10 -18 -13 -10 -16 -27 -14 -89 l2 -76 -30 0 -31 0 0 65 c0 79
20 125 54 125 12 0 26 -3 29 -7z m367 -87 l0 -93 -52 -6 c-61 -6 -94 9 -104
48 -14 54 35 109 81 91 11 -4 15 1 15 18 0 29 7 36 37 36 22 0 23 -2 23 -94z
m598 -3 l3 -93 -31 0 -30 0 0 96 0 95 28 -3 27 -3 3 -92z m72 77 c0 -16 -7
-20 -30 -20 -18 0 -30 5 -30 13 0 20 10 27 37 27 16 0 23 -6 23 -20z m-2020
-15 c0 -23 -4 -25 -45 -25 -25 0 -45 -4 -45 -10 0 -5 18 -10 40 -10 36 0 40
-3 40 -24 0 -22 -5 -25 -42 -29 l-43 -4 48 -1 c43 -2 47 -4 47 -27 0 -25 -1
-25 -80 -25 l-80 0 0 83 c0 46 3 87 7 90 3 4 39 7 80 7 71 0 73 -1 73 -25z
m1718 -40 c3 -70 -12 -106 -50 -119 -30 -11 -88 8 -88 29 0 15 28 29 53 26 14
-2 17 6 17 57 0 67 4 74 40 70 23 -3 25 -7 28 -63z m-1587 6 l23 -18 -21 -12
c-12 -6 -29 -8 -38 -5 -20 8 -38 -15 -24 -32 5 -6 19 -9 32 -7 13 3 29 -2 36
-10 10 -13 8 -18 -11 -31 -50 -35 -118 -1 -118 60 0 65 69 97 121 55z m147 2
c12 -10 24 -30 28 -45 5 -22 0 -33 -24 -58 -36 -35 -69 -38 -106 -9 -53 41
-19 129 50 129 17 0 41 -8 52 -17z m182 -3 c5 -10 10 -41 10 -69 0 -50 -1 -51
-29 -51 -28 0 -30 3 -33 43 -2 23 -7 42 -13 42 -5 0 -11 -19 -13 -42 -3 -40
-5 -43 -33 -43 l-29 0 0 69 0 70 65 0 c53 0 67 -4 75 -19z m148 3 c12 -10 24
-30 28 -45 5 -22 0 -33 -24 -58 -36 -35 -69 -38 -106 -9 -53 41 -19 129 50
129 17 0 41 -8 52 -17z m268 4 c4 -4 10 -34 12 -67 l4 -60 -31 0 c-28 0 -31 3
-31 29 0 16 -3 36 -6 45 -12 31 -24 16 -24 -29 0 -43 -1 -45 -29 -45 -28 0
-30 3 -33 42 -4 59 -28 63 -28 4 0 -44 -1 -46 -30 -46 l-30 0 0 70 0 69 109
-2 c61 -1 113 -6 117 -10z m224 -7 c15 -15 20 -33 20 -69 l0 -48 -56 -6 c-67
-7 -82 -2 -90 29 -8 32 11 54 48 54 17 0 27 4 23 10 -3 6 -17 7 -29 4 -18 -4
-25 -1 -29 15 -6 23 4 29 56 30 24 1 44 -6 57 -19z m390 0 c25 -25 27 -70 4
-70 -14 0 -14 -2 -3 -16 11 -14 10 -18 -6 -30 -57 -42 -141 22 -116 88 19 49
85 64 121 28z m362 3 c13 -12 18 -30 18 -68 l0 -52 -57 -6 c-50 -6 -60 -4 -75
14 -28 34 -6 69 45 69 18 0 26 4 21 11 -3 6 -17 8 -29 5 -26 -7 -40 7 -31 29
8 21 84 20 108 -2z m168 -53 l0 -70 -30 0 -30 0 0 70 0 70 30 0 30 0 0 -70z
m130 60 c12 -7 12 -11 -3 -28 -16 -17 -16 -20 -2 -25 15 -7 20 -33 9 -61 -8
-21 -62 -30 -97 -17 -38 15 -29 36 14 35 l34 -2 -32 16 c-40 19 -48 38 -28 68
12 18 25 24 53 24 20 0 44 -4 52 -10z m144 -9 c17 -18 17 -20 -2 -30 -10 -5
-29 -7 -41 -4 -19 5 -22 2 -19 -18 2 -19 8 -23 29 -21 14 2 31 -4 38 -12 10
-11 8 -17 -11 -30 -50 -35 -118 -1 -118 59 0 65 83 102 124 56z m151 -6 c28
-27 30 -42 14 -78 -12 -26 -47 -47 -80 -47 -29 0 -69 44 -69 76 0 67 86 99
135 49z"/>
<path d="M2148 1125 c2 -15 0 -25 -7 -25 -6 0 -11 -9 -11 -20 0 -11 7 -20 15
-20 8 0 15 9 15 20 0 11 7 20 15 20 9 0 15 -9 15 -21 0 -18 2 -19 15 -9 12 10
13 16 4 26 -6 8 -9 23 -6 34 3 12 0 20 -8 20 -8 0 -11 -8 -8 -20 4 -14 0 -20
-11 -20 -9 0 -16 8 -16 20 0 11 -4 20 -9 20 -4 0 -6 -11 -3 -25z"/>
<path d="M3007 1130 c3 -11 0 -20 -6 -20 -5 0 -8 -7 -5 -15 7 -17 25 -21 22
-4 -2 6 2 13 9 16 6 2 13 -4 15 -14 3 -17 4 -17 11 0 5 14 2 20 -13 24 -11 3
-20 12 -20 19 0 8 -4 14 -9 14 -5 0 -7 -9 -4 -20z"/>
<path d="M3670 1116 c0 -9 5 -16 10 -16 6 0 10 4 10 9 0 6 -4 13 -10 16 -5 3
-10 -1 -10 -9z"/>
<path d="M2780 819 c0 -27 3 -30 23 -24 12 4 26 11 31 16 13 11 -12 39 -35 39
-15 0 -19 -7 -19 -31z"/>
<path d="M3010 745 c0 -8 9 -15 20 -15 11 0 20 7 20 15 0 8 -9 15 -20 15 -11
0 -20 -7 -20 -15z"/>
<path d="M3267 753 c-14 -13 -6 -24 15 -21 27 4 36 28 11 28 -11 0 -23 -3 -26
-7z"/>
<path d="M3516 795 c-9 -9 -16 -20 -16 -25 0 -14 31 -41 43 -37 21 7 32 36 21
54 -15 24 -29 26 -48 8z"/>
<path d="M4020 744 c0 -10 7 -14 22 -12 32 5 35 28 4 28 -17 0 -26 -5 -26 -16z"/>
<path d="M2903 494 c-7 -18 11 -39 26 -30 17 11 13 46 -4 46 -9 0 -18 -7 -22
-16z"/>
<path d="M1860 491 c0 -11 4 -22 9 -25 12 -8 34 21 26 34 -11 17 -35 11 -35
-9z"/>
<path d="M2190 491 c0 -11 4 -22 9 -25 12 -8 34 21 26 34 -11 17 -35 11 -35
-9z"/>
<path d="M2685 469 c-10 -15 3 -25 16 -12 7 7 7 13 1 17 -6 3 -14 1 -17 -5z"/>
<path d="M3075 510 c-3 -5 1 -10 9 -10 9 0 16 5 16 10 0 6 -4 10 -9 10 -6 0
-13 -4 -16 -10z"/>
<path d="M3088 463 c6 -2 18 -2 25 0 6 3 1 5 -13 5 -14 0 -19 -2 -12 -5z"/>
<path d="M3435 460 c3 -5 10 -10 16 -10 5 0 9 5 9 10 0 6 -7 10 -16 10 -8 0
-12 -4 -9 -10z"/>
<path d="M3748 513 c7 -3 16 -2 19 1 4 3 -2 6 -13 5 -11 0 -14 -3 -6 -6z"/>
<path d="M4020 491 c0 -11 4 -22 8 -25 14 -9 35 12 29 28 -9 23 -37 20 -37 -3z"/>
</g>
</svg>
